<?xml version="1.0" encoding="UTF-8"?>
<svg width="20px" height="20px" viewBox="0 0 20 20" version="1.1" xmlns="http://www.w3.org/2000/svg" xmlns:xlink="http://www.w3.org/1999/xlink">
    <title>编组 9</title>
    <defs>
        <circle id="path-1" cx="10" cy="10" r="10"></circle>
    </defs>
    <g id="页面-1" stroke="none" stroke-width="1" fill="none" fill-rule="evenodd">
        <g id="编组-9">
            <mask id="mask-2" fill="white">
                <use xlink:href="#path-1"></use>
            </mask>
            <use id="椭圆形" fill="#FFFFFF" xlink:href="#path-1"></use>
            <g id="编组-3备份-6" mask="url(#mask-2)" fill="#4371F0" fill-rule="nonzero">
                <path d="M10,0 C15.5228475,0 20,4.4771525 20,10 C20,15.5228475 15.5228475,20 10,20 C4.4771525,20 0,15.5228475 0,10 C0,4.4771525 4.4771525,0 10,0 Z M10,0.85106383 C4.94718208,0.85106383 0.85106383,4.94718208 0.85106383,10 C0.85106383,15.0528179 4.94718208,19.1489362 10,19.1489362 C15.0528179,19.1489362 19.1489362,15.0528179 19.1489362,10 C19.1489362,4.94718208 15.0528179,0.85106383 10,0.85106383 Z" id="椭圆形"></path>
                <path d="M10,2.3880597 C14.2039585,2.3880597 17.6119403,5.79604146 17.6119403,10 C17.6119403,14.2039585 14.2039585,17.6119403 10,17.6119403 C5.79604146,17.6119403 2.3880597,14.2039585 2.3880597,10 C2.3880597,5.79604146 5.79604146,2.3880597 10,2.3880597 Z M10,3.23912353 C6.26607103,3.23912353 3.23912353,6.26607103 3.23912353,10 C3.23912353,13.733929 6.26607103,16.7608765 10,16.7608765 C13.733929,16.7608765 16.7608765,13.733929 16.7608765,10 C16.7608765,6.26607103 13.733929,3.23912353 10,3.23912353 Z" id="椭圆形"></path>
                <path d="M10,4.7761194 C12.8850696,4.7761194 15.2238806,7.11493041 15.2238806,10 C15.2238806,12.8850696 12.8850696,15.2238806 10,15.2238806 C7.11493041,15.2238806 4.7761194,12.8850696 4.7761194,10 C4.7761194,7.11493041 7.11493041,4.7761194 10,4.7761194 Z M10,5.62718323 C7.58495999,5.62718323 5.62718323,7.58495999 5.62718323,10 C5.62718323,12.41504 7.58495999,14.3728168 10,14.3728168 C12.41504,14.3728168 14.3728168,12.41504 14.3728168,10 C14.3728168,7.58495999 12.41504,5.62718323 10,5.62718323 Z" id="椭圆形"></path>
                <path d="M10,7.1641791 C11.5661806,7.1641791 12.8358209,8.43381937 12.8358209,10 C12.8358209,11.5661806 11.5661806,12.8358209 10,12.8358209 C8.43381937,12.8358209 7.1641791,11.5661806 7.1641791,10 C7.1641791,8.43381937 8.43381937,7.1641791 10,7.1641791 Z M10,8.01524293 C8.90384894,8.01524293 8.01524293,8.90384894 8.01524293,10 C8.01524293,11.0961511 8.90384894,11.9847571 10,11.9847571 C11.0961511,11.9847571 11.9847571,11.0961511 11.9847571,10 C11.9847571,8.90384894 11.0961511,8.01524293 10,8.01524293 Z" id="椭圆形"></path>
            </g>
        </g>
    </g>
</svg>