<?xml version="1.0" encoding="UTF-8"?>
<svg width="22px" height="22px" viewBox="0 0 22 22" version="1.1" xmlns="http://www.w3.org/2000/svg" xmlns:xlink="http://www.w3.org/1999/xlink">
    <title>图标/info24px</title>
    <g id="页面-1" stroke="none" stroke-width="1" fill="none" fill-rule="evenodd">
        <g id="提示" transform="translate(-556, -97)" fill="#4371F0" fill-rule="nonzero">
            <g id="编组-6" transform="translate(539, 80)">
                <g id="图标/info24px" transform="translate(17, 17)">
                    <path d="M11,0 C4.9328125,0 0,4.9328125 0,11 C0,17.0671875 4.9328125,22 11,22 C17.0671875,22 22,17.0671875 22,11 C22,4.9328125 17.0671875,0 11,0 Z M12.375,16.5 C12.375,17.25625 11.75625,17.875 11,17.875 C10.24375,17.875 9.625,17.25625 9.625,16.5 L9.625,9.625 C9.625,8.86875 10.24375,8.25 11,8.25 C11.75625,8.25 12.375,8.86875 12.375,9.625 L12.375,16.5 Z M11,6.875 C10.24375,6.875 9.625,6.25625 9.625,5.5 C9.625,4.74375 10.24375,4.125 11,4.125 C11.75625,4.125 12.375,4.74375 12.375,5.5 C12.375,6.25625 11.75625,6.875 11,6.875 Z" id="形状"></path>
                </g>
            </g>
        </g>
    </g>
</svg>