<?xml version="1.0" encoding="UTF-8"?>
<svg width="195.37037px" height="87.3949091px" viewBox="0 0 195.37037 87.3949091" version="1.1" xmlns="http://www.w3.org/2000/svg" xmlns:xlink="http://www.w3.org/1999/xlink">
    <title>编组 3备份 4</title>
    <defs>
        <path d="M0.394862679,27.8548139 C5.67816555,18.3921316 11.6646712,13.6607905 18.3543796,13.6607905 C28.3889422,13.6607905 35.471752,28.7492324 47.6851852,27.8548139 C59.8986184,26.9603953 64.630471,0 72.0315667,0 C79.4326624,0 83.5834649,16.3436624 89.7379075,17.467443 C95.8923502,18.5912236 98.6451894,7.87356354 102.719036,5.15194397 C106.792882,2.43032439 122.19117,-1.6448934 129.477869,11.1522204 C132.928705,17.2126797 138.994623,25.5115293 145.37037,25.9461971 C152.457491,26.429363 159.851243,18.6007459 162.850296,16.8970924 C168.547369,13.6607905 184.807803,13.8601446 189.674042,21.8320789 C192.918201,27.1467018 196.360187,29.1713591 200,27.9060506 L200,62.1234568 L0,62.1234568 L0.394862679,27.8548139 Z" id="path-1"></path>
        <linearGradient x1="50%" y1="0%" x2="50%" y2="100%" id="linearGradient-3">
            <stop stop-color="#4371F0" offset="0%"></stop>
            <stop stop-color="#4371F0" stop-opacity="0" offset="100%"></stop>
        </linearGradient>
        <path d="M0.394862679,27.8548139 C5.67816555,18.3921316 11.6646712,13.6607905 18.3543796,13.6607905 C28.3889422,13.6607905 35.471752,28.7492324 47.6851852,27.8548139 C59.8986184,26.9603953 64.630471,0 72.0315667,0 C79.4326624,0 83.5834649,16.3436624 89.7379075,17.467443 C95.8923502,18.5912236 98.6451894,7.87356354 102.719036,5.15194397 C106.792882,2.43032439 122.19117,-1.6448934 129.477869,11.1522204 C132.928705,17.2126797 138.994623,25.5115293 145.37037,25.9461971 C152.457491,26.429363 159.851243,18.6007459 162.850296,16.8970924 C168.547369,13.6607905 184.807803,13.8601446 189.674042,21.8320789 C192.918201,27.1467018 196.360187,29.1713591 200,27.9060506 L200,62.1234568 L0,62.1234568 L0.394862679,27.8548139 Z" id="path-4"></path>
    </defs>
    <g id="页面-1" stroke="none" stroke-width="1" fill="none" fill-rule="evenodd">
        <g id="首页" transform="translate(-583, -198.6051)">
            <g id="编组-3备份-4" transform="translate(583, 198.6051)">
                <g id="编组-3备份-3" transform="translate(0, 19.3949)">
                    <g id="编组-5" transform="translate(0, 5.8765)">
                        <mask id="mask-2" fill="white">
                            <use xlink:href="#path-1"></use>
                        </mask>
                        <g id="路径"></g>
                        <g id="编组-4" mask="url(#mask-2)" fill="url(#linearGradient-3)">
                            <g transform="translate(0, -4.9304)">
                                <rect id="矩形" x="0" y="0" width="1" height="67.0538899"></rect>
                                <rect id="矩形备份-25" x="66.6666667" y="0" width="1" height="67.0538899"></rect>
                                <rect id="矩形备份-5" x="11.1111111" y="0" width="1" height="67.0538899"></rect>
                                <rect id="矩形备份-26" x="77.7777778" y="0" width="1" height="67.0538899"></rect>
                                <rect id="矩形备份-9" x="22.2222222" y="0" width="1" height="67.0538899"></rect>
                                <rect id="矩形备份-27" x="88.8888889" y="0" width="1" height="67.0538899"></rect>
                                <rect id="矩形备份-13" x="33.3333333" y="0" width="1" height="67.0538899"></rect>
                                <rect id="矩形备份-28" x="100" y="0" width="1" height="67.0538899"></rect>
                                <rect id="矩形备份-49" x="138.888889" y="0" width="1" height="67.0538899"></rect>
                                <rect id="矩形备份-17" x="44.4444444" y="0" width="1" height="67.0538899"></rect>
                                <rect id="矩形备份-29" x="111.111111" y="0" width="1" height="67.0538899"></rect>
                                <rect id="矩形备份-50" x="150" y="0" width="1" height="67.0538899"></rect>
                                <rect id="矩形备份-63" x="175" y="0" width="1" height="67.0538899"></rect>
                                <rect id="矩形备份-21" x="55.5555556" y="0" width="1" height="67.0538899"></rect>
                                <rect id="矩形备份-30" x="122.222222" y="0" width="1" height="67.0538899"></rect>
                                <rect id="矩形备份-51" x="161.111111" y="0" width="1" height="67.0538899"></rect>
                                <rect id="矩形备份-64" x="186.111111" y="0" width="1" height="67.0538899"></rect>
                                <rect id="矩形备份-3" x="5.55555556" y="0" width="1" height="67.0538899"></rect>
                                <rect id="矩形备份-31" x="72.2222222" y="0" width="1" height="67.0538899"></rect>
                                <rect id="矩形备份-6" x="16.6666667" y="0" width="1" height="67.0538899"></rect>
                                <rect id="矩形备份-32" x="83.3333333" y="0" width="1" height="67.0538899"></rect>
                                <rect id="矩形备份-10" x="27.7777778" y="0" width="1" height="67.0538899"></rect>
                                <rect id="矩形备份-33" x="94.4444444" y="0" width="1" height="67.0538899"></rect>
                                <rect id="矩形备份-52" x="133.333333" y="0" width="1" height="67.0538899"></rect>
                                <rect id="矩形备份-14" x="38.8888889" y="0" width="1" height="67.0538899"></rect>
                                <rect id="矩形备份-34" x="105.555556" y="0" width="1" height="67.0538899"></rect>
                                <rect id="矩形备份-53" x="144.444444" y="0" width="1" height="67.0538899"></rect>
                                <rect id="矩形备份-18" x="50" y="0" width="1" height="67.0538899"></rect>
                                <rect id="矩形备份-35" x="116.666667" y="0" width="1" height="67.0538899"></rect>
                                <rect id="矩形备份-54" x="155.555556" y="0" width="1" height="67.0538899"></rect>
                                <rect id="矩形备份-65" x="180.555556" y="0" width="1" height="67.0538899"></rect>
                                <rect id="矩形备份-22" x="61.1111111" y="0" width="1" height="67.0538899"></rect>
                                <rect id="矩形备份-36" x="127.777778" y="0" width="1" height="67.0538899"></rect>
                                <rect id="矩形备份-55" x="166.666667" y="0" width="1" height="67.0538899"></rect>
                                <rect id="矩形备份-66" x="191.666667" y="0" width="1" height="67.0538899"></rect>
                                <rect id="矩形备份-2" x="2.77777778" y="0" width="1" height="67.0538899"></rect>
                                <rect id="矩形备份-37" x="69.4444444" y="0" width="1" height="67.0538899"></rect>
                                <rect id="矩形备份-7" x="13.8888889" y="0" width="1" height="67.0538899"></rect>
                                <rect id="矩形备份-38" x="80.5555556" y="0" width="1" height="67.0538899"></rect>
                                <rect id="矩形备份-11" x="25" y="0" width="1" height="67.0538899"></rect>
                                <rect id="矩形备份-39" x="91.6666667" y="0" width="1" height="67.0538899"></rect>
                                <rect id="矩形备份-15" x="36.1111111" y="0" width="1" height="67.0538899"></rect>
                                <rect id="矩形备份-40" x="102.777778" y="0" width="1" height="67.0538899"></rect>
                                <rect id="矩形备份-56" x="141.666667" y="0" width="1" height="67.0538899"></rect>
                                <rect id="矩形备份-19" x="47.2222222" y="0" width="1" height="67.0538899"></rect>
                                <rect id="矩形备份-41" x="113.888889" y="0" width="1" height="67.0538899"></rect>
                                <rect id="矩形备份-57" x="152.777778" y="0" width="1" height="67.0538899"></rect>
                                <rect id="矩形备份-67" x="177.777778" y="0" width="1" height="67.0538899"></rect>
                                <rect id="矩形备份-23" x="58.3333333" y="0" width="1" height="67.0538899"></rect>
                                <rect id="矩形备份-42" x="125" y="0" width="1" height="67.0538899"></rect>
                                <rect id="矩形备份-58" x="163.888889" y="0" width="1" height="67.0538899"></rect>
                                <rect id="矩形备份-68" x="188.888889" y="0" width="1" height="67.0538899"></rect>
                                <rect id="矩形备份-4" x="8.33333333" y="0" width="1" height="67.0538899"></rect>
                                <rect id="矩形备份-43" x="75" y="0" width="1" height="67.0538899"></rect>
                                <rect id="矩形备份-8" x="19.4444444" y="0" width="1" height="67.0538899"></rect>
                                <rect id="矩形备份-44" x="86.1111111" y="0" width="1" height="67.0538899"></rect>
                                <rect id="矩形备份-12" x="30.5555556" y="0" width="1" height="67.0538899"></rect>
                                <rect id="矩形备份-45" x="97.2222222" y="0" width="1" height="67.0538899"></rect>
                                <rect id="矩形备份-59" x="136.111111" y="0" width="1" height="67.0538899"></rect>
                                <rect id="矩形备份-16" x="41.6666667" y="0" width="1" height="67.0538899"></rect>
                                <rect id="矩形备份-46" x="108.333333" y="0" width="1" height="67.0538899"></rect>
                                <rect id="矩形备份-60" x="147.222222" y="0" width="1" height="67.0538899"></rect>
                                <rect id="矩形备份-69" x="172.222222" y="0" width="1" height="67.0538899"></rect>
                                <rect id="矩形备份-20" x="52.7777778" y="0" width="1" height="67.0538899"></rect>
                                <rect id="矩形备份-47" x="119.444444" y="0" width="1" height="67.0538899"></rect>
                                <rect id="矩形备份-61" x="158.333333" y="0" width="1" height="67.0538899"></rect>
                                <rect id="矩形备份-70" x="183.333333" y="0" width="1" height="67.0538899"></rect>
                                <rect id="矩形备份-24" x="63.8888889" y="0" width="1" height="67.0538899"></rect>
                                <rect id="矩形备份-48" x="130.555556" y="0" width="1" height="67.0538899"></rect>
                                <rect id="矩形备份-62" x="169.444444" y="0" width="1" height="67.0538899"></rect>
                                <rect id="矩形备份-71" x="194.444444" y="0" width="1" height="67.0538899"></rect>
                            </g>
                        </g>
                    </g>
                    <g id="编组-5" transform="translate(100, 31.0617) scale(1, -1) translate(-100, -31.0617)translate(0, -0)">
                        <mask id="mask-5" fill="white">
                            <use xlink:href="#path-4"></use>
                        </mask>
                        <g id="路径"></g>
                        <g id="编组-4" mask="url(#mask-5)" fill="url(#linearGradient-3)">
                            <g transform="translate(0, -4.9304)">
                                <rect id="矩形" x="0" y="0" width="1" height="67.0538899"></rect>
                                <rect id="矩形备份-25" x="66.6666667" y="0" width="1" height="67.0538899"></rect>
                                <rect id="矩形备份-5" x="11.1111111" y="0" width="1" height="67.0538899"></rect>
                                <rect id="矩形备份-26" x="77.7777778" y="0" width="1" height="67.0538899"></rect>
                                <rect id="矩形备份-9" x="22.2222222" y="0" width="1" height="67.0538899"></rect>
                                <rect id="矩形备份-27" x="88.8888889" y="0" width="1" height="67.0538899"></rect>
                                <rect id="矩形备份-13" x="33.3333333" y="0" width="1" height="67.0538899"></rect>
                                <rect id="矩形备份-28" x="100" y="0" width="1" height="67.0538899"></rect>
                                <rect id="矩形备份-49" x="138.888889" y="0" width="1" height="67.0538899"></rect>
                                <rect id="矩形备份-17" x="44.4444444" y="0" width="1" height="67.0538899"></rect>
                                <rect id="矩形备份-29" x="111.111111" y="0" width="1" height="67.0538899"></rect>
                                <rect id="矩形备份-50" x="150" y="0" width="1" height="67.0538899"></rect>
                                <rect id="矩形备份-63" x="175" y="0" width="1" height="67.0538899"></rect>
                                <rect id="矩形备份-21" x="55.5555556" y="0" width="1" height="67.0538899"></rect>
                                <rect id="矩形备份-30" x="122.222222" y="0" width="1" height="67.0538899"></rect>
                                <rect id="矩形备份-51" x="161.111111" y="0" width="1" height="67.0538899"></rect>
                                <rect id="矩形备份-64" x="186.111111" y="0" width="1" height="67.0538899"></rect>
                                <rect id="矩形备份-3" x="5.55555556" y="0" width="1" height="67.0538899"></rect>
                                <rect id="矩形备份-31" x="72.2222222" y="0" width="1" height="67.0538899"></rect>
                                <rect id="矩形备份-6" x="16.6666667" y="0" width="1" height="67.0538899"></rect>
                                <rect id="矩形备份-32" x="83.3333333" y="0" width="1" height="67.0538899"></rect>
                                <rect id="矩形备份-10" x="27.7777778" y="0" width="1" height="67.0538899"></rect>
                                <rect id="矩形备份-33" x="94.4444444" y="0" width="1" height="67.0538899"></rect>
                                <rect id="矩形备份-52" x="133.333333" y="0" width="1" height="67.0538899"></rect>
                                <rect id="矩形备份-14" x="38.8888889" y="0" width="1" height="67.0538899"></rect>
                                <rect id="矩形备份-34" x="105.555556" y="0" width="1" height="67.0538899"></rect>
                                <rect id="矩形备份-53" x="144.444444" y="0" width="1" height="67.0538899"></rect>
                                <rect id="矩形备份-18" x="50" y="0" width="1" height="67.0538899"></rect>
                                <rect id="矩形备份-35" x="116.666667" y="0" width="1" height="67.0538899"></rect>
                                <rect id="矩形备份-54" x="155.555556" y="0" width="1" height="67.0538899"></rect>
                                <rect id="矩形备份-65" x="180.555556" y="0" width="1" height="67.0538899"></rect>
                                <rect id="矩形备份-22" x="61.1111111" y="0" width="1" height="67.0538899"></rect>
                                <rect id="矩形备份-36" x="127.777778" y="0" width="1" height="67.0538899"></rect>
                                <rect id="矩形备份-55" x="166.666667" y="0" width="1" height="67.0538899"></rect>
                                <rect id="矩形备份-66" x="191.666667" y="0" width="1" height="67.0538899"></rect>
                                <rect id="矩形备份-2" x="2.77777778" y="0" width="1" height="67.0538899"></rect>
                                <rect id="矩形备份-37" x="69.4444444" y="0" width="1" height="67.0538899"></rect>
                                <rect id="矩形备份-7" x="13.8888889" y="0" width="1" height="67.0538899"></rect>
                                <rect id="矩形备份-38" x="80.5555556" y="0" width="1" height="67.0538899"></rect>
                                <rect id="矩形备份-11" x="25" y="0" width="1" height="67.0538899"></rect>
                                <rect id="矩形备份-39" x="91.6666667" y="0" width="1" height="67.0538899"></rect>
                                <rect id="矩形备份-15" x="36.1111111" y="0" width="1" height="67.0538899"></rect>
                                <rect id="矩形备份-40" x="102.777778" y="0" width="1" height="67.0538899"></rect>
                                <rect id="矩形备份-56" x="141.666667" y="0" width="1" height="67.0538899"></rect>
                                <rect id="矩形备份-19" x="47.2222222" y="0" width="1" height="67.0538899"></rect>
                                <rect id="矩形备份-41" x="113.888889" y="0" width="1" height="67.0538899"></rect>
                                <rect id="矩形备份-57" x="152.777778" y="0" width="1" height="67.0538899"></rect>
                                <rect id="矩形备份-67" x="177.777778" y="0" width="1" height="67.0538899"></rect>
                                <rect id="矩形备份-23" x="58.3333333" y="0" width="1" height="67.0538899"></rect>
                                <rect id="矩形备份-42" x="125" y="0" width="1" height="67.0538899"></rect>
                                <rect id="矩形备份-58" x="163.888889" y="0" width="1" height="67.0538899"></rect>
                                <rect id="矩形备份-68" x="188.888889" y="0" width="1" height="67.0538899"></rect>
                                <rect id="矩形备份-4" x="8.33333333" y="0" width="1" height="67.0538899"></rect>
                                <rect id="矩形备份-43" x="75" y="0" width="1" height="67.0538899"></rect>
                                <rect id="矩形备份-8" x="19.4444444" y="0" width="1" height="67.0538899"></rect>
                                <rect id="矩形备份-44" x="86.1111111" y="0" width="1" height="67.0538899"></rect>
                                <rect id="矩形备份-12" x="30.5555556" y="0" width="1" height="67.0538899"></rect>
                                <rect id="矩形备份-45" x="97.2222222" y="0" width="1" height="67.0538899"></rect>
                                <rect id="矩形备份-59" x="136.111111" y="0" width="1" height="67.0538899"></rect>
                                <rect id="矩形备份-16" x="41.6666667" y="0" width="1" height="67.0538899"></rect>
                                <rect id="矩形备份-46" x="108.333333" y="0" width="1" height="67.0538899"></rect>
                                <rect id="矩形备份-60" x="147.222222" y="0" width="1" height="67.0538899"></rect>
                                <rect id="矩形备份-69" x="172.222222" y="0" width="1" height="67.0538899"></rect>
                                <rect id="矩形备份-20" x="52.7777778" y="0" width="1" height="67.0538899"></rect>
                                <rect id="矩形备份-47" x="119.444444" y="0" width="1" height="67.0538899"></rect>
                                <rect id="矩形备份-61" x="158.333333" y="0" width="1" height="67.0538899"></rect>
                                <rect id="矩形备份-70" x="183.333333" y="0" width="1" height="67.0538899"></rect>
                                <rect id="矩形备份-24" x="63.8888889" y="0" width="1" height="67.0538899"></rect>
                                <rect id="矩形备份-48" x="130.555556" y="0" width="1" height="67.0538899"></rect>
                                <rect id="矩形备份-62" x="169.444444" y="0" width="1" height="67.0538899"></rect>
                                <rect id="矩形备份-71" x="194.444444" y="0" width="1" height="67.0538899"></rect>
                            </g>
                        </g>
                    </g>
                </g>
                <g id="F" transform="translate(13.344, 8.1629)" fill="#4371F0" fill-rule="nonzero">
                    <path d="M0.576,6.624 C0.618666667,6.58133333 0.64,6.496 0.64,6.368 C0.64,6.28266667 0.618666667,6.16533333 0.576,6.016 L0.416,1.952 C0.373333333,1.86666667 0.352,1.728 0.352,1.536 C0.373333333,1.49333333 0.384,1.39733333 0.384,1.248 C0.384,1.184 0.394666667,1.152 0.416,1.152 L0.416,0.992 C0.416,0.928 0.405333333,0.821333333 0.384,0.672 C0.362666667,0.629333333 0.352,0.576 0.352,0.512 C0.352,0.362666667 0.373333333,0.234666667 0.416,0.128 C0.565333333,0.0426666667 0.693333333,0 0.8,0 L2.048,0 C2.21866667,0.149333333 2.41066667,0.224 2.624,0.224 C2.88,0.224 3.136,0.170666667 3.392,0.064 C3.648,0.0213333333 3.92533333,0 4.224,0 L4.608,0 C4.65066667,0 4.71466667,0.0106666667 4.8,0.032 C4.94933333,0.0533333333 5.03466667,0.064 5.056,0.064 C5.184,0.064 5.39733333,0.0533333333 5.696,0.032 C6.03733333,0.0106666667 6.26133333,0 6.368,0 L6.688,0 C6.96533333,0 7.104,0.106666667 7.104,0.32 C7.104,0.874666667 6.86933333,1.22666667 6.4,1.376 C5.99466667,1.52533333 5.632,1.6 5.312,1.6 L5.12,1.6 L5.024,1.6 C5.024,1.55733333 4.88533333,1.51466667 4.608,1.472 L3.616,1.472 C3.296,1.51466667 3.09333333,1.536 3.008,1.536 C2.944,1.57866667 2.90133333,1.6 2.88,1.6 L2.752,1.6 C2.47466667,1.6 2.20266667,1.57866667 1.936,1.536 C1.66933333,1.49333333 1.39733333,1.472 1.12,1.472 C1.12,1.792 1.152,2.08 1.216,2.336 C1.344,2.61333333 1.408,2.88 1.408,3.136 C1.408,3.73333333 1.376,4.192 1.312,4.512 C1.29066667,4.896 1.28,5.26933333 1.28,5.632 L1.28,6.624 C1.28,6.85866667 1.38666667,6.976 1.6,6.976 L4.48,6.976 C4.608,6.95466667 4.71466667,6.90133333 4.8,6.816 L5.056,6.816 C5.67466667,6.816 5.984,7.08266667 5.984,7.616 L5.984,7.904 C5.792,8.032 5.57866667,8.096 5.344,8.096 C5.13066667,8.13866667 4.88533333,8.16 4.608,8.16 L4.224,8.16 C4.05333333,8.16 3.904,8.128 3.776,8.064 C3.712,7.97866667 3.65866667,7.936 3.616,7.936 C3.46666667,8.02133333 3.36,8.064 3.296,8.064 C3.04,8.064 2.784,8.07466667 2.528,8.096 C2.22933333,8.13866667 1.96266667,8.16 1.728,8.16 C1.64266667,8.16 1.536,8.144 1.408,8.112 C1.28,8.08 1.23733333,8.10666667 1.28,8.192 C1.32266667,8.40533333 1.32266667,8.576 1.28,8.704 L1.216,8.896 C1.30133333,8.98133333 1.344,9.13066667 1.344,9.344 L1.472,10.976 C1.51466667,11.488 1.536,11.9253333 1.536,12.288 L1.536,12.96 C1.536,13.1093333 1.49333333,13.184 1.408,13.184 C1.408,13.2906667 1.38666667,13.568 1.344,14.016 L1.344,14.88 C1.344,14.9653333 1.36533333,15.0293333 1.408,15.072 C1.45066667,15.2213333 1.472,15.328 1.472,15.392 C1.472,15.584 1.42933333,15.8293333 1.344,16.128 C1.30133333,16.4266667 1.152,16.576 0.896,16.576 C0.298666667,16.576 0,16.3093333 0,15.776 C0,15.2853333 0.064,14.7733333 0.192,14.24 C0.341333333,13.7706667 0.469333333,13.28 0.576,12.768 C0.576,12.704 0.522666667,12.3306667 0.416,11.648 C0.416,11.008 0.469333333,10.656 0.576,10.592 C0.469333333,10.4 0.416,10.0693333 0.416,9.6 L0.416,9.056 L0.576,6.624 Z" id="路径"></path>
                </g>
                <g id="r备份-5" transform="translate(30.228, 13.7229)" fill="#4371F0" fill-rule="nonzero">
                    <path d="M2.88,8.864 C2.79466667,8.50133333 2.79466667,8.11733333 2.88,7.712 C2.98666667,7.34933333 3.06133333,6.98666667 3.104,6.624 L3.104,5.472 C3.14666667,4.93866667 3.09333333,4.384 2.944,3.808 C2.944,3.424 2.92266667,3.11466667 2.88,2.88 C2.88,2.624 2.83733333,2.31466667 2.752,1.952 L2.72,1.952 C2.31466667,1.952 2.03733333,2.09066667 1.888,2.368 C1.80266667,2.64533333 1.62133333,2.83733333 1.344,2.944 L0.832,2.976 C0.704,3.01866667 0.426666667,3.12533333 0,3.296 C0.128,2.95466667 0.288,2.72 0.48,2.592 C0.821333333,2.464 1.01333333,2.37866667 1.056,2.336 C1.29066667,2.08 1.54666667,1.696 1.824,1.184 C2.16533333,0.714666667 2.53866667,0.48 2.944,0.48 C3.264,0.48 3.52533333,0.672 3.728,1.056 C3.93066667,1.44 4.14933333,1.632 4.384,1.632 C4.512,1.61066667 4.608,1.51466667 4.672,1.344 C4.77866667,1.19466667 4.87466667,1.008 4.96,0.784 C5.04533333,0.56 5.19466667,0.362666667 5.408,0.192 C5.57866667,0.064 5.824,0 6.144,0 C6.784,0 7.2,0.213333333 7.392,0.64 C7.62666667,1.088 7.85066667,1.46133333 8.064,1.76 C8.23466667,1.93066667 8.352,2.032 8.416,2.064 C8.48,2.096 8.512,2.19733333 8.512,2.368 C8.512,2.624 8.36266667,2.76266667 8.064,2.784 C7.68,2.848 7.37066667,2.69866667 7.136,2.336 C6.98666667,1.952 6.72,1.70666667 6.336,1.6 C5.80266667,2.09066667 5.408,2.57066667 5.152,3.04 L4.672,5.024 C4.608,5.45066667 4.544,5.76 4.48,5.952 C4.45866667,6.18666667 4.42666667,6.496 4.384,6.88 C4.32,7.008 4.256,7.264 4.192,7.648 L4.288,8.32 C4.39466667,8.448 4.42666667,8.74666667 4.384,9.216 C4.384,9.664 4.17066667,9.92 3.744,9.984 C3.46666667,9.984 3.25333333,9.84533333 3.104,9.568 C2.95466667,9.33333333 2.88,9.09866667 2.88,8.864 Z" id="路径"></path>
                </g>
                <g id="e备份-8" transform="translate(46.976, 19.8189)" fill="#4371F0" fill-rule="nonzero">
                    <path d="M0,6.208 C0.0213333333,6.016 0.117333333,5.64266667 0.288,5.088 C0.330666667,4.576 0.352,4.21333333 0.352,4 C0.501333333,3.744 0.608,3.392 0.672,2.944 C0.821333333,2.56 1.03466667,2.21866667 1.312,1.92 C1.39733333,1.77066667 1.61066667,1.49333333 1.952,1.088 C2.31466667,0.746666667 2.57066667,0.501333333 2.72,0.352 C3.14666667,0.117333333 3.616,0 4.128,0 C4.512,0 4.87466667,0.106666667 5.216,0.32 C5.51466667,0.533333333 5.76,0.789333333 5.952,1.088 C6.208,1.38666667 6.37866667,1.70666667 6.464,2.048 C6.592,2.45333333 6.656,2.832 6.656,3.184 C6.656,3.536 6.624,3.92533333 6.56,4.352 C6.53866667,4.82133333 6.272,5.056 5.76,5.056 L5.536,5.056 C5.45066667,5.056 5.39733333,5.03466667 5.376,4.992 L3.296,4.992 C2.61333333,5.03466667 2.016,5.22666667 1.504,5.568 L1.504,5.92 C1.504,6.64533333 1.65333333,7.296 1.952,7.872 C2.31466667,8.448 2.89066667,8.736 3.68,8.736 L3.936,8.736 C4.40533333,8.50133333 4.85333333,8.23466667 5.28,7.936 C5.68533333,7.68 6.144,7.456 6.656,7.264 L6.656,7.552 C6.656,7.872 6.58666667,8.09066667 6.448,8.208 C6.30933333,8.32533333 6.13333333,8.50133333 5.92,8.736 C5.51466667,9.16266667 5.10933333,9.48266667 4.704,9.696 C4.32,9.952 3.81866667,10.08 3.2,10.08 C2.176,10.08 1.376,9.68533333 0.8,8.896 C0.266666667,8.17066667 0,7.28533333 0,6.24 L0,6.208 Z M1.728,4 C2.112,4.02133333 2.42133333,4.05333333 2.656,4.096 C2.86933333,4.18133333 3.17866667,4.224 3.584,4.224 C3.98933333,4.224 4.384,4.14933333 4.768,4 C5.17333333,3.808 5.376,3.40266667 5.376,2.784 C5.376,2.50666667 5.31733333,2.176 5.2,1.792 C5.08266667,1.408 4.768,1.216 4.256,1.216 C3.65866667,1.216 3.072,1.44 2.496,1.888 C1.96266667,2.4 1.696,2.976 1.696,3.616 L1.696,3.744 C1.71733333,3.872 1.728,3.95733333 1.728,4 Z" id="形状"></path>
                </g>
                <g id="e备份-9" transform="translate(64.276, 10.8189)" fill="#4371F0" fill-rule="nonzero">
                    <path d="M0,6.208 C0.0213333333,6.016 0.117333333,5.64266667 0.288,5.088 C0.330666667,4.576 0.352,4.21333333 0.352,4 C0.501333333,3.744 0.608,3.392 0.672,2.944 C0.821333333,2.56 1.03466667,2.21866667 1.312,1.92 C1.39733333,1.77066667 1.61066667,1.49333333 1.952,1.088 C2.31466667,0.746666667 2.57066667,0.501333333 2.72,0.352 C3.14666667,0.117333333 3.616,0 4.128,0 C4.512,0 4.87466667,0.106666667 5.216,0.32 C5.51466667,0.533333333 5.76,0.789333333 5.952,1.088 C6.208,1.38666667 6.37866667,1.70666667 6.464,2.048 C6.592,2.45333333 6.656,2.832 6.656,3.184 C6.656,3.536 6.624,3.92533333 6.56,4.352 C6.53866667,4.82133333 6.272,5.056 5.76,5.056 L5.536,5.056 C5.45066667,5.056 5.39733333,5.03466667 5.376,4.992 L3.296,4.992 C2.61333333,5.03466667 2.016,5.22666667 1.504,5.568 L1.504,5.92 C1.504,6.64533333 1.65333333,7.296 1.952,7.872 C2.31466667,8.448 2.89066667,8.736 3.68,8.736 L3.936,8.736 C4.40533333,8.50133333 4.85333333,8.23466667 5.28,7.936 C5.68533333,7.68 6.144,7.456 6.656,7.264 L6.656,7.552 C6.656,7.872 6.58666667,8.09066667 6.448,8.208 C6.30933333,8.32533333 6.13333333,8.50133333 5.92,8.736 C5.51466667,9.16266667 5.10933333,9.48266667 4.704,9.696 C4.32,9.952 3.81866667,10.08 3.2,10.08 C2.176,10.08 1.376,9.68533333 0.8,8.896 C0.266666667,8.17066667 0,7.28533333 0,6.24 L0,6.208 Z M1.728,4 C2.112,4.02133333 2.42133333,4.05333333 2.656,4.096 C2.86933333,4.18133333 3.17866667,4.224 3.584,4.224 C3.98933333,4.224 4.384,4.14933333 4.768,4 C5.17333333,3.808 5.376,3.40266667 5.376,2.784 C5.376,2.50666667 5.31733333,2.176 5.2,1.792 C5.08266667,1.408 4.768,1.216 4.256,1.216 C3.65866667,1.216 3.072,1.44 2.496,1.888 C1.96266667,2.4 1.696,2.976 1.696,3.616 L1.696,3.744 C1.71733333,3.872 1.728,3.95733333 1.728,4 Z" id="形状"></path>
                </g>
                <g id="S" transform="translate(82.192, 0)" fill="#4371F0" fill-rule="nonzero">
                    <path d="M0,13.8909091 C0,13.3362424 0.0373333333,12.7869091 0.112,12.2429091 C0.186666667,11.6989091 0.405333333,11.2349091 0.768,10.8509091 C0.96,10.8509091 1.088,10.9149091 1.152,11.0429091 C1.23733333,11.2775758 1.20533333,11.5122424 1.056,11.7469091 C0.992,12.0029091 0.96,12.2482424 0.96,12.4829091 C0.96,13.1442424 1.088,13.7202424 1.344,14.2109091 C1.664,14.7655758 2.12266667,15.1815758 2.72,15.4589091 C3.72266667,15.2029091 4.55466667,14.6802424 5.216,13.8909091 C5.94133333,13.2082424 6.304,12.2909091 6.304,11.1389091 C6.28266667,10.9895758 6.208,10.7549091 6.08,10.4349091 C6.016,10.0722424 5.888,9.81624242 5.696,9.66690909 C5.54666667,9.56024242 5.44,9.48557576 5.376,9.44290909 C5.07733333,9.05890909 4.79466667,8.73357576 4.528,8.46690909 C4.26133333,8.20024242 4,7.87490909 3.744,7.49090909 C3.552,7.29890909 3.392,7.10690909 3.264,6.91490909 L3.04,6.37090909 C2.63466667,5.81624242 2.32,5.31490909 2.096,4.86690909 C1.872,4.41890909 1.71733333,3.87490909 1.632,3.23490909 C1.632,2.87224242 1.712,2.46157576 1.872,2.00290909 C2.032,1.54424242 2.304,1.14424242 2.688,0.802909091 C3.05066667,0.525575758 3.31733333,0.333575758 3.488,0.226909091 C3.85066667,0.184242424 4.21333333,0.109575758 4.576,0.00290909091 C5.088,-0.0184242424 5.49333333,0.0775757576 5.792,0.290909091 C6.15466667,0.546909091 6.336,0.920242424 6.336,1.41090909 L6.336,1.53890909 C6.16533333,1.77357576 5.94133333,1.89090909 5.664,1.89090909 C5.664,1.84824242 5.64266667,1.68824242 5.6,1.41090909 C5.6,1.17624242 5.536,0.984242424 5.408,0.834909091 L5.152,0.994909091 C4.59733333,1.03757576 4.03733333,1.24557576 3.472,1.61890909 C2.90666667,1.99224242 2.624,2.50957576 2.624,3.17090909 C2.66666667,3.42690909 2.69866667,3.71490909 2.72,4.03490909 C2.82666667,4.29090909 2.88,4.54690909 2.88,4.80290909 C3.2,4.95224242 3.40266667,5.19757576 3.488,5.53890909 C3.59466667,5.96557576 3.808,6.24290909 4.128,6.37090909 C5.17333333,7.16024242 6.02666667,7.93890909 6.688,8.70690909 C7.37066667,9.53890909 7.75466667,10.5949091 7.84,11.8749091 L7.84,12.5149091 C7.73333333,12.8775758 7.59466667,13.1975758 7.424,13.4749091 C7.36,13.7522424 7.232,14.0509091 7.04,14.3709091 C6.76266667,14.9042424 6.19733333,15.3949091 5.344,15.8429091 C4.46933333,16.4189091 3.72266667,16.7069091 3.104,16.7069091 C2.336,16.7069091 1.632,16.4189091 0.992,15.8429091 C0.416,15.3309091 0.0853333333,14.6802424 0,13.8909091 Z" id="路径"></path>
                </g>
                <g id="m备份-3" transform="translate(170.34, 16.5629)" fill="#4371F0" fill-rule="nonzero">
                    <path d="M1.408,8.896 C1.408,8.29866667 1.408,7.43466667 1.408,6.304 C1.472,5.17333333 1.54666667,4.37333333 1.632,3.904 C1.632,3.88266667 1.65333333,3.73333333 1.696,3.456 C1.78133333,3.22133333 1.824,3.05066667 1.824,2.944 C1.888,2.752 1.84533333,2.48533333 1.696,2.144 C1.568,1.84533333 1.376,1.64266667 1.12,1.536 C1.09866667,1.536 0.954666667,1.73866667 0.688,2.144 C0.421333333,2.54933333 0.277333333,2.752 0.256,2.752 C0.0853333333,2.752 0,2.672 0,2.512 C0,2.352 0.0266666667,2.26666667 0.08,2.256 C0.133333333,2.24533333 0.202666667,2.00533333 0.288,1.536 C0.416,1.13066667 0.682666667,0.917333333 1.088,0.896 C1.36533333,0.896 1.568,0.928 1.696,0.992 C1.888,1.12 2.09066667,1.29066667 2.304,1.504 C2.56,1.16266667 2.848,0.864 3.168,0.608 C3.53066667,0.373333333 3.936,0.245333333 4.384,0.224 C4.64,0.181333333 4.88533333,0.245333333 5.12,0.416 C5.376,0.672 5.58933333,0.906666667 5.76,1.12 C5.99466667,1.35466667 6.18666667,1.54666667 6.336,1.696 C6.44266667,1.93066667 6.55466667,2.048 6.672,2.048 C6.78933333,2.048 6.89066667,1.93066667 6.976,1.696 C7.12533333,1.54666667 7.27466667,1.35466667 7.424,1.12 L8.032,0.352 C8.24533333,0.202666667 8.576,0.0853333333 9.024,0 C9.77066667,0 10.368,0.373333333 10.816,1.12 C11.2853333,1.824 11.52,2.496 11.52,3.136 C11.52,3.47733333 11.488,3.84533333 11.424,4.24 C11.36,4.63466667 11.328,5.77066667 11.328,7.648 C11.328,7.88266667 11.36,8.07466667 11.424,8.224 C11.4453333,8.48 11.456,8.72533333 11.456,8.96 C11.456,9.00266667 11.4453333,9.10933333 11.424,9.28 L11.424,9.824 C11.36,10.0373333 11.168,10.144 10.848,10.144 C10.592,10.144 10.4106667,10.0906667 10.304,9.984 C10.1973333,9.94133333 10.144,9.76 10.144,9.44 C10.144,9.16266667 10.1546667,8.85333333 10.176,8.512 C10.2613333,8.21333333 10.304,7.89333333 10.304,7.552 L10.144,2.88 C10.144,2.624 10.016,2.26133333 9.76,1.792 C9.568,1.45066667 9.30133333,1.28 8.96,1.28 C8.72533333,1.28 8.512,1.36533333 8.32,1.536 C8.14933333,1.792 7.97866667,2.03733333 7.808,2.272 C7.72266667,2.592 7.616,2.88 7.488,3.136 L7.36,3.808 C7.18933333,4.46933333 7.01866667,5.17333333 6.848,5.92 C6.72,6.66666667 6.656,7.40266667 6.656,8.128 C6.656,8.36266667 6.70933333,8.544 6.816,8.672 C6.88,8.88533333 6.912,9.088 6.912,9.28 C6.912,9.51466667 6.83733333,9.728 6.688,9.92 C6.64533333,10.176 6.464,10.304 6.144,10.304 C5.93066667,10.304 5.73866667,10.1973333 5.568,9.984 C5.44,9.87733333 5.376,9.70666667 5.376,9.472 C5.312,8.576 5.312,7.70133333 5.376,6.848 C5.504,5.99466667 5.52533333,5.13066667 5.44,4.256 C5.44,3.744 5.408,3.28533333 5.344,2.88 C5.32266667,2.47466667 5.09866667,2.112 4.672,1.792 L4.576,1.92 C4.512,1.92 4.45866667,1.87733333 4.416,1.792 C4.096,1.87733333 3.79733333,2.13333333 3.52,2.56 C3.28533333,2.98666667 3.104,3.488 2.976,4.064 C2.848,4.704 2.784,5.33866667 2.784,5.968 C2.784,6.59733333 2.784,7.168 2.784,7.68 C2.784,8.29866667 2.77333333,8.74666667 2.752,9.024 C2.752,9.36533333 2.69866667,9.632 2.592,9.824 C2.48533333,10.0586667 2.304,10.176 2.048,10.176 C1.89866667,10.176 1.76,10.112 1.632,9.984 C1.54666667,9.87733333 1.472,9.73866667 1.408,9.568 L1.408,8.896 Z" id="路径"></path>
                </g>
                <g id="a备份-3" transform="translate(152.16, 20.7869)" fill="#4371F0" fill-rule="nonzero">
                    <path d="M0.192,7.968 C0.192,7.11466667 0.394666667,6.368 0.8,5.728 C1.26933333,5.10933333 1.76,4.55466667 2.272,4.064 C2.4,4.10666667 2.58666667,4.06933333 2.832,3.952 C3.07733333,3.83466667 3.28533333,3.712 3.456,3.584 L4.256,3.232 C4.46933333,3.06133333 4.68266667,2.976 4.896,2.976 L5.28,2.976 C5.344,3.06133333 5.376,3.14666667 5.376,3.232 C5.376,3.31733333 5.31733333,3.36 5.2,3.36 C5.08266667,3.36 4.992,3.36 4.928,3.36 L4.256,3.936 C4.08533333,4.128 3.81866667,4.17066667 3.456,4.064 C3.34933333,4.17066667 3.2,4.27733333 3.008,4.384 C2.88,4.55466667 2.784,4.69333333 2.72,4.8 C2.37866667,5.07733333 2.09066667,5.49333333 1.856,6.048 C1.51466667,6.56 1.344,7.02933333 1.344,7.456 C1.344,8.20266667 1.65333333,8.576 2.272,8.576 C2.42133333,8.576 2.66666667,8.48 3.008,8.288 C3.41333333,8.096 3.76533333,7.86133333 4.064,7.584 C4.42666667,7.264 4.74666667,6.976 5.024,6.72 C5.36533333,6.54933333 5.54666667,6.336 5.568,6.08 C5.65333333,5.99466667 5.696,5.77066667 5.696,5.408 C5.696,5.10933333 5.696,4.90666667 5.696,4.8 L5.792,4.256 C5.89866667,4.064 5.952,3.84 5.952,3.584 C5.952,3.43466667 5.89866667,3.31733333 5.792,3.232 C5.728,3.14666667 5.696,3.02933333 5.696,2.88 C5.696,2.77333333 5.712,2.70933333 5.744,2.688 C5.776,2.66666667 5.792,2.54933333 5.792,2.336 C5.792,2.16533333 5.65333333,1.90933333 5.376,1.568 C5.14133333,1.26933333 4.896,1.12 4.64,1.12 C4.08533333,1.12 3.62666667,1.17333333 3.264,1.28 C2.96533333,1.408 2.58133333,1.65333333 2.112,2.016 C1.792,2.18666667 1.48266667,2.47466667 1.184,2.88 C0.928,3.392 0.533333333,3.648 0,3.648 L0,3.232 C0.106666667,3.14666667 0.181333333,3.04 0.224,2.912 L0.672,2.528 C1.12,1.99466667 1.68,1.44 2.352,0.864 C3.024,0.288 3.76533333,0 4.576,0 C5.42933333,0 6.08533333,0.336 6.544,1.008 C7.00266667,1.68 7.232,2.384 7.232,3.12 C7.232,3.856 7.17866667,4.52266667 7.072,5.12 C6.98666667,5.80266667 6.944,6.45333333 6.944,7.072 L6.944,8.288 C6.944,8.48 7.04,8.576 7.232,8.576 C7.33866667,8.576 7.43466667,8.53333333 7.52,8.448 C7.73333333,8.448 7.86133333,8.43733333 7.904,8.416 L8.64,7.584 L8.768,7.584 C8.87466667,7.584 8.928,7.72266667 8.928,8 C8.928,8.192 8.90666667,8.27733333 8.864,8.256 L8.64,8.448 C8.40533333,8.81066667 8.20266667,9.16266667 8.032,9.504 C7.98933333,9.888 7.69066667,10.08 7.136,10.08 C6.816,10.08 6.56,9.97333333 6.368,9.76 C6.21866667,9.65333333 6.08533333,9.488 5.968,9.264 C5.85066667,9.04 5.77066667,8.768 5.728,8.448 C5.70666667,8.256 5.64266667,8.032 5.536,7.776 C5.32266667,7.86133333 5.14133333,7.98933333 4.992,8.16 L4.704,8.448 C4.40533333,8.832 4.02133333,9.184 3.552,9.504 C3.06133333,9.888 2.56,10.08 2.048,10.08 L1.952,10.08 C1.696,9.90933333 1.48266667,9.78133333 1.312,9.696 C1.14133333,9.65333333 1.00266667,9.58933333 0.896,9.504 C0.832,9.44 0.762666667,9.328 0.688,9.168 C0.613333333,9.008 0.512,8.75733333 0.384,8.416 C0.384,8.39466667 0.330666667,8.34133333 0.224,8.256 C0.202666667,8.192 0.192,8.128 0.192,8.064 L0.192,7.968 Z" id="路径"></path>
                </g>
                <g id="e备份-10" transform="translate(134.476, 14.8189)" fill="#4371F0" fill-rule="nonzero">
                    <path d="M0,6.208 C0.0213333333,6.016 0.117333333,5.64266667 0.288,5.088 C0.330666667,4.576 0.352,4.21333333 0.352,4 C0.501333333,3.744 0.608,3.392 0.672,2.944 C0.821333333,2.56 1.03466667,2.21866667 1.312,1.92 C1.39733333,1.77066667 1.61066667,1.49333333 1.952,1.088 C2.31466667,0.746666667 2.57066667,0.501333333 2.72,0.352 C3.14666667,0.117333333 3.616,0 4.128,0 C4.512,0 4.87466667,0.106666667 5.216,0.32 C5.51466667,0.533333333 5.76,0.789333333 5.952,1.088 C6.208,1.38666667 6.37866667,1.70666667 6.464,2.048 C6.592,2.45333333 6.656,2.832 6.656,3.184 C6.656,3.536 6.624,3.92533333 6.56,4.352 C6.53866667,4.82133333 6.272,5.056 5.76,5.056 L5.536,5.056 C5.45066667,5.056 5.39733333,5.03466667 5.376,4.992 L3.296,4.992 C2.61333333,5.03466667 2.016,5.22666667 1.504,5.568 L1.504,5.92 C1.504,6.64533333 1.65333333,7.296 1.952,7.872 C2.31466667,8.448 2.89066667,8.736 3.68,8.736 L3.936,8.736 C4.40533333,8.50133333 4.85333333,8.23466667 5.28,7.936 C5.68533333,7.68 6.144,7.456 6.656,7.264 L6.656,7.552 C6.656,7.872 6.58666667,8.09066667 6.448,8.208 C6.30933333,8.32533333 6.13333333,8.50133333 5.92,8.736 C5.51466667,9.16266667 5.10933333,9.48266667 4.704,9.696 C4.32,9.952 3.81866667,10.08 3.2,10.08 C2.176,10.08 1.376,9.68533333 0.8,8.896 C0.266666667,8.17066667 0,7.28533333 0,6.24 L0,6.208 Z M1.728,4 C2.112,4.02133333 2.42133333,4.05333333 2.656,4.096 C2.86933333,4.18133333 3.17866667,4.224 3.584,4.224 C3.98933333,4.224 4.384,4.14933333 4.768,4 C5.17333333,3.808 5.376,3.40266667 5.376,2.784 C5.376,2.50666667 5.31733333,2.176 5.2,1.792 C5.08266667,1.408 4.768,1.216 4.256,1.216 C3.65866667,1.216 3.072,1.44 2.496,1.888 C1.96266667,2.4 1.696,2.976 1.696,3.616 L1.696,3.744 C1.71733333,3.872 1.728,3.95733333 1.728,4 Z" id="形状"></path>
                </g>
                <g id="r备份-6" transform="translate(115.728, 7.7229)" fill="#4371F0" fill-rule="nonzero">
                    <path d="M2.88,8.864 C2.79466667,8.50133333 2.79466667,8.11733333 2.88,7.712 C2.98666667,7.34933333 3.06133333,6.98666667 3.104,6.624 L3.104,5.472 C3.14666667,4.93866667 3.09333333,4.384 2.944,3.808 C2.944,3.424 2.92266667,3.11466667 2.88,2.88 C2.88,2.624 2.83733333,2.31466667 2.752,1.952 L2.72,1.952 C2.31466667,1.952 2.03733333,2.09066667 1.888,2.368 C1.80266667,2.64533333 1.62133333,2.83733333 1.344,2.944 L0.832,2.976 C0.704,3.01866667 0.426666667,3.12533333 0,3.296 C0.128,2.95466667 0.288,2.72 0.48,2.592 C0.821333333,2.464 1.01333333,2.37866667 1.056,2.336 C1.29066667,2.08 1.54666667,1.696 1.824,1.184 C2.16533333,0.714666667 2.53866667,0.48 2.944,0.48 C3.264,0.48 3.52533333,0.672 3.728,1.056 C3.93066667,1.44 4.14933333,1.632 4.384,1.632 C4.512,1.61066667 4.608,1.51466667 4.672,1.344 C4.77866667,1.19466667 4.87466667,1.008 4.96,0.784 C5.04533333,0.56 5.19466667,0.362666667 5.408,0.192 C5.57866667,0.064 5.824,0 6.144,0 C6.784,0 7.2,0.213333333 7.392,0.64 C7.62666667,1.088 7.85066667,1.46133333 8.064,1.76 C8.23466667,1.93066667 8.352,2.032 8.416,2.064 C8.48,2.096 8.512,2.19733333 8.512,2.368 C8.512,2.624 8.36266667,2.76266667 8.064,2.784 C7.68,2.848 7.37066667,2.69866667 7.136,2.336 C6.98666667,1.952 6.72,1.70666667 6.336,1.6 C5.80266667,2.09066667 5.408,2.57066667 5.152,3.04 L4.672,5.024 C4.608,5.45066667 4.544,5.76 4.48,5.952 C4.45866667,6.18666667 4.42666667,6.496 4.384,6.88 C4.32,7.008 4.256,7.264 4.192,7.648 L4.288,8.32 C4.39466667,8.448 4.42666667,8.74666667 4.384,9.216 C4.384,9.664 4.17066667,9.92 3.744,9.984 C3.46666667,9.984 3.25333333,9.84533333 3.104,9.568 C2.95466667,9.33333333 2.88,9.09866667 2.88,8.864 Z" id="路径"></path>
                </g>
                <g id="t备份-3" transform="translate(98.844, 9.4669)" fill="#4371F0" fill-rule="nonzero">
                    <path d="M1.952,12.384 C1.952,12.3413333 1.96266667,12.3093333 1.984,12.288 L2.272,9.792 C2.336,8.98133333 2.35733333,8.14933333 2.336,7.296 L2.336,6.208 C2.336,5.824 2.31466667,5.45066667 2.272,5.088 C2.12266667,5.17333333 1.89866667,5.23733333 1.6,5.28 C1.38666667,5.30133333 1.22666667,5.33333333 1.12,5.376 L1.088,5.376 C0.981333333,5.33333333 0.810666667,5.28 0.576,5.216 C0.234666667,5.13066667 0.0426666667,5.06666667 0,5.024 L0,4.928 C0,4.65066667 0.0853333333,4.448 0.256,4.32 C0.469333333,4.256 0.693333333,4.224 0.928,4.224 L0.992,4.224 L1.408,4.256 C1.77066667,4.256 2.06933333,4.13866667 2.304,3.904 L2.304,3.008 C2.304,2.60266667 2.31466667,2.15466667 2.336,1.664 C2.42133333,1.25866667 2.47466667,0.864 2.496,0.48 C2.58133333,0.16 2.688,0 2.816,0 L2.88,0 C2.96533333,0.149333333 3.104,0.298666667 3.296,0.448 C3.50933333,0.661333333 3.616,0.864 3.616,1.056 L3.616,3.328 L3.648,3.712 C3.69066667,3.75466667 3.76533333,3.776 3.872,3.776 L4.288,3.712 C4.544,3.75466667 4.82133333,3.776 5.12,3.776 C5.46133333,3.776 5.632,3.95733333 5.632,4.32 C5.67466667,4.448 5.61066667,4.576 5.44,4.704 C5.376,4.85333333 5.248,4.928 5.056,4.928 L3.648,4.992 C3.62666667,4.992 3.552,5.09866667 3.424,5.312 C3.40266667,5.52533333 3.37066667,5.77066667 3.328,6.048 L3.232,6.976 L3.232,7.296 C3.168,8 3.136,8.704 3.136,9.408 C3.136,10.176 3.168,10.8373333 3.232,11.392 C3.168,11.4133333 3.12533333,11.4986667 3.104,11.648 L3.104,11.936 C3.12533333,12.0426667 3.168,12.096 3.232,12.096 C3.27466667,12.1386667 3.296,12.1866667 3.296,12.24 C3.296,12.2933333 3.26933333,12.32 3.216,12.32 C3.16266667,12.32 3.136,12.3413333 3.136,12.384 C3.136,12.7253333 3.22133333,12.896 3.392,12.896 C3.648,12.896 3.84,12.7253333 3.968,12.384 C4.096,12.0853333 4.20266667,11.7546667 4.288,11.392 C4.48,11.0506667 4.65066667,10.72 4.8,10.4 C4.97066667,10.1226667 5.152,9.984 5.344,9.984 C5.536,9.984 5.632,10.0693333 5.632,10.24 L5.632,10.368 C5.41866667,10.944 5.216,11.4773333 5.024,11.968 C4.832,12.5866667 4.68266667,13.152 4.576,13.664 C4.34133333,13.984 4.14933333,14.192 4,14.288 C3.85066667,14.384 3.616,14.432 3.296,14.432 C2.848,14.432 2.512,14.2346667 2.288,13.84 C2.064,13.4453333 1.952,13.0666667 1.952,12.704 L1.952,12.384 Z" id="路径"></path>
                </g>
            </g>
        </g>
    </g>
</svg>