<?xml version="1.0" encoding="UTF-8"?>
<svg width="162.016667px" height="188.1px" viewBox="0 0 162.016667 188.1" version="1.1" xmlns="http://www.w3.org/2000/svg" xmlns:xlink="http://www.w3.org/1999/xlink">
    <title>编组</title>
    <g id="页面-1" stroke="none" stroke-width="1" fill="none" fill-rule="evenodd">
        <g id="歌单-无数据" transform="translate(-602, -290)">
            <g id="编组" transform="translate(602, 290)">
                <g id="编组-6">
                    <ellipse id="椭圆形" fill-opacity="0.0793661905" fill="#4371F0" cx="81" cy="150.1" rx="81" ry="14"></ellipse>
                    <g id="编组-2" transform="translate(16, 25.1)">
                        <path d="M129,61.308585 L129,105.832394 C129,111.618235 123.791465,116.308585 117.366412,116.308585 L13.6335878,116.308585 C7.20853467,116.308585 2,111.618235 2,105.832394 L2,61.308585" id="路径" stroke="#AFC2F8" stroke-width="2" fill="#FFFFFF"></path>
                        <path d="M5.94954726,65.7134811 L46.6776631,65.7134811 C48.8868021,65.7134811 50.6776631,67.5043421 50.6776631,69.7134811 L50.6776631,76 C50.6776631,78.209139 52.4685241,80 54.6776631,80 L77.7897654,80 C79.9989044,80 81.7897654,78.209139 81.7897654,76 L81.7897654,69.7134811 C81.7897654,67.5043421 83.5806264,65.7134811 85.7897654,65.7134811 L125.050453,65.7134811 C127.259592,65.7134811 129.050453,63.9226201 129.050453,61.7134811 C129.050453,61.1958869 128.949998,60.6832123 128.754659,60.2038934 L105.234489,2.49041227 C104.620776,0.984491001 103.156457,6.80670399e-15 101.530283,0 L29.4697171,0 C27.8435428,2.07508021e-15 26.3792239,0.984491001 25.7655107,2.49041227 L2.24534089,60.2038934 C1.4116186,62.2496701 2.39418284,64.5839652 4.43995953,65.4176875 C4.91927846,65.613026 5.43195307,65.7134811 5.94954726,65.7134811 Z" id="矩形备份" stroke="#AFC2F8" stroke-width="2"></path>
                        <path d="M19.1866084,59.1356139 L53.4694237,59.1356139 C55.126278,59.1356139 56.4694237,60.4787596 56.4694237,62.1356139 L56.4694237,66.7674419 C56.4694237,68.4242961 57.8125695,69.7674419 59.4694237,69.7674419 L71.6226161,69.7674419 C73.2794704,69.7674419 74.6226161,68.4242961 74.6226161,66.7674419 L74.6226161,62.1356139 C74.6226161,60.4787596 75.9657619,59.1356139 77.6226161,59.1356139 L111.813392,59.1356139 C113.470246,59.1356139 114.813392,57.7924681 114.813392,56.1356139 C114.813392,55.75402 114.740591,55.3759296 114.598893,55.0216196 L97.0688214,11.1883313 C96.6132781,10.0492623 95.5101038,9.30232558 94.2833202,9.30232558 L36.7166798,9.30232558 C35.4898962,9.30232558 34.3867219,10.0492623 33.9311786,11.1883313 L16.4011072,55.0216196 C15.7858651,56.5600094 16.5342242,58.3058729 18.0726141,58.921115 C18.4269241,59.0628128 18.8050145,59.1356139 19.1866084,59.1356139 Z" id="矩形备份" fill="#E1E8FD"></path>
                    </g>
                    <path d="M13.3,37 C12.5071204,39.3978712 11.6973118,41.0101756 10.8705742,41.8369132 C10.0438367,42.6636507 8.45364526,43.4513463 6.1,44.2 C8.46367999,44.8534806 10.0538714,45.5885723 10.8705742,46.4052752 C11.687277,47.221978 12.4970856,48.8868863 13.3,51.4 C14.0570715,48.9421693 14.8655447,47.277261 15.7254196,46.4052752 C16.5852946,45.5332893 18.143488,44.7981976 20.4,44.2 C17.8112957,43.4531657 16.108419,42.6654701 15.2913699,41.8369132 C14.4743207,41.0083563 13.8105307,39.3960519 13.3,37 Z" id="路径-2" fill-opacity="0.253889177" fill="#4371F0"></path>
                    <path d="M145.1,0 C143.888656,3.66341438 142.651449,6.12665719 141.388377,7.38972846 C140.125306,8.65279972 137.695847,9.85622357 134.1,11 C137.711178,11.9983732 140.140637,13.12143 141.388377,14.3691704 C142.636118,15.6169108 143.873325,18.1605207 145.1,22 C146.256637,18.2449808 147.491804,15.701371 148.805502,14.3691704 C150.1192,13.0369698 152.499773,11.913913 155.947222,11 C151.992257,9.85900312 149.39064,8.65557928 148.142371,7.38972846 C146.894101,6.12387764 145.879978,3.66063482 145.1,0 Z" id="路径-2备份" fill-opacity="0.253889177" fill="#4371F0"></path>
                    <path d="M139.1,30 C138.439267,31.998226 137.764426,33.341813 137.075479,34.030761 C136.386531,34.7197089 135.061371,35.3761219 133.1,36 C135.069733,36.5445672 136.394893,37.1571436 137.075479,37.8377293 C137.756064,38.518315 138.430905,39.9057386 139.1,42 C139.730893,39.9518077 140.404621,38.5643842 141.121183,37.8377293 C141.837745,37.1110744 143.13624,36.498498 145.016667,36 C142.859413,35.3776381 141.440349,34.7212251 140.759475,34.030761 C140.078601,33.3402969 139.525442,31.9967099 139.1,30 Z" id="路径-2备份-2" fill-opacity="0.253889177" fill="#4371F0"></path>
                    <path d="M8.07222222,59 C7.63173354,60.3321507 7.18183987,61.2278753 6.72254123,61.687174 C6.26324259,62.1464726 5.37980292,62.5840813 4.07222222,63 C5.38537777,63.3630448 6.26881744,63.7714291 6.72254123,64.2251529 C7.17626502,64.6788767 7.62615868,65.6038257 8.07222222,67 C8.4928175,65.6345385 8.94196929,64.7095894 9.41967758,64.2251529 C9.89738587,63.7407163 10.7630489,63.332332 12.0166667,63 C10.5784976,62.585092 9.63245501,62.1474834 9.17853881,61.687174 C8.72462261,61.2268646 8.35585041,60.3311399 8.07222222,59 Z" id="路径-2备份-4" fill-opacity="0.253889177" fill="#4371F0"></path>
                    <path d="M156.1,131 C155.439267,132.998226 154.764426,134.341813 154.075479,135.030761 C153.386531,135.719709 152.061371,136.376122 150.1,137 C152.069733,137.544567 153.394893,138.157144 154.075479,138.837729 C154.756064,139.518315 155.430905,140.905739 156.1,143 C156.730893,140.951808 157.404621,139.564384 158.121183,138.837729 C158.837745,138.111074 160.13624,137.498498 162.016667,137 C159.859413,136.377638 158.440349,135.721225 157.759475,135.030761 C157.078601,134.340297 156.525442,132.99671 156.1,131 Z" id="路径-2备份-3" fill-opacity="0.253889177" fill="#4371F0"></path>
                </g>
                <text id="暂无数据" font-family="PingFangSC-Regular, PingFang SC" font-size="14" font-weight="normal" fill="#000000" fill-opacity="0.446486253">
                    <tspan x="53" y="183.1">暂无数据</tspan>
                </text>
            </g>
        </g>
    </g>
</svg>