<?xml version="1.0" encoding="UTF-8"?>
<svg width="1366px" height="56px" viewBox="0 0 1366 56" version="1.1" xmlns="http://www.w3.org/2000/svg" xmlns:xlink="http://www.w3.org/1999/xlink">
    <title>编组 6</title>
    <defs>
        <path d="M0.302069949,19.6622216 C4.34379664,12.9826812 8.92347346,9.64291096 14.0411004,9.64291096 C21.7175408,9.64291096 27.1358903,20.2935758 36.4791667,19.6622216 C45.8224431,19.0308673 49.4423103,0 55.1041485,0 C60.7659868,0 63.9413507,11.5367029 68.6494993,12.3299598 C73.3576479,13.1232167 75.4635699,5.55780956 78.5800622,3.63666633 C81.6965546,1.7155231 93.4762454,-1.16110123 99.05057,7.87215559 C101.69046,12.1501269 106.330887,18.0081383 111.208333,18.3149627 C116.629981,18.656021 122.286201,13.1299383 124.580476,11.9273594 C128.938738,9.64291096 141.377969,9.78363145 145.100642,15.4108792 C147.582424,19.1623778 150.215543,20.5915476 153,19.6983886 L153,43.8518519 L0,43.8518519 L0.302069949,19.6622216 Z" id="path-1"></path>
        <linearGradient x1="50%" y1="0%" x2="50%" y2="100%" id="linearGradient-3">
            <stop stop-color="#4371F0" offset="0%"></stop>
            <stop stop-color="#4371F0" stop-opacity="0" offset="100%"></stop>
        </linearGradient>
        <linearGradient x1="50%" y1="0%" x2="50%" y2="100%" id="linearGradient-4">
            <stop stop-color="#FFFFFF" offset="0%"></stop>
            <stop stop-color="#FFFFFF" stop-opacity="0" offset="100%"></stop>
        </linearGradient>
        <path d="M0.302069949,19.6622216 C4.34379664,12.9826812 8.92347346,9.64291096 14.0411004,9.64291096 C21.7175408,9.64291096 27.1358903,20.2935758 36.4791667,19.6622216 C45.8224431,19.0308673 49.4423103,0 55.1041485,0 C60.7659868,0 63.9413507,11.5367029 68.6494993,12.3299598 C73.3576479,13.1232167 75.4635699,5.55780956 78.5800622,3.63666633 C81.6965546,1.7155231 93.4762454,-1.16110123 99.05057,7.87215559 C101.69046,12.1501269 106.330887,18.0081383 111.208333,18.3149627 C116.629981,18.656021 122.286201,13.1299383 124.580476,11.9273594 C128.938738,9.64291096 141.377969,9.78363145 145.100642,15.4108792 C147.582424,19.1623778 150.215543,20.5915476 153,19.6983886 L153,43.8518519 L0,43.8518519 L0.302069949,19.6622216 Z" id="path-5"></path>
    </defs>
    <g id="页面-1" stroke="none" stroke-width="1" fill="none" fill-rule="evenodd">
        <g id="编组-6">
            <rect id="矩形" fill-opacity="0.85" fill="#1E273C" x="0" y="0" width="1366" height="56"></rect>
            <g id="编组-6备份" transform="translate(8, 4)">
                <g id="编组-3">
                    <g id="编组-5" transform="translate(0, 4.1481)">
                        <mask id="mask-2" fill="white">
                            <use xlink:href="#path-1"></use>
                        </mask>
                        <g id="路径"></g>
                        <g id="编组-4" mask="url(#mask-2)" fill="url(#linearGradient-4)">
                            <g transform="translate(0, -3.4803)">
                                <rect id="矩形" x="0" y="0" width="1" height="47.3321576"></rect>
                                <rect id="矩形备份-25" x="51" y="0" width="1" height="47.3321576"></rect>
                                <rect id="矩形备份-5" x="8.5" y="0" width="1" height="47.3321576"></rect>
                                <rect id="矩形备份-26" x="59.5" y="0" width="1" height="47.3321576"></rect>
                                <rect id="矩形备份-9" x="17" y="0" width="1" height="47.3321576"></rect>
                                <rect id="矩形备份-27" x="68" y="0" width="1" height="47.3321576"></rect>
                                <rect id="矩形备份-13" x="25.5" y="0" width="1" height="47.3321576"></rect>
                                <rect id="矩形备份-28" x="76.5" y="0" width="1" height="47.3321576"></rect>
                                <rect id="矩形备份-49" x="106.25" y="0" width="1" height="47.3321576"></rect>
                                <rect id="矩形备份-17" x="34" y="0" width="1" height="47.3321576"></rect>
                                <rect id="矩形备份-29" x="85" y="0" width="1" height="47.3321576"></rect>
                                <rect id="矩形备份-50" x="114.75" y="0" width="1" height="47.3321576"></rect>
                                <rect id="矩形备份-63" x="133.875" y="0" width="1" height="47.3321576"></rect>
                                <rect id="矩形备份-21" x="42.5" y="0" width="1" height="47.3321576"></rect>
                                <rect id="矩形备份-30" x="93.5" y="0" width="1" height="47.3321576"></rect>
                                <rect id="矩形备份-51" x="123.25" y="0" width="1" height="47.3321576"></rect>
                                <rect id="矩形备份-64" x="142.375" y="0" width="1" height="47.3321576"></rect>
                                <rect id="矩形备份-3" x="4.25" y="0" width="1" height="47.3321576"></rect>
                                <rect id="矩形备份-31" x="55.25" y="0" width="1" height="47.3321576"></rect>
                                <rect id="矩形备份-6" x="12.75" y="0" width="1" height="47.3321576"></rect>
                                <rect id="矩形备份-32" x="63.75" y="0" width="1" height="47.3321576"></rect>
                                <rect id="矩形备份-10" x="21.25" y="0" width="1" height="47.3321576"></rect>
                                <rect id="矩形备份-33" x="72.25" y="0" width="1" height="47.3321576"></rect>
                                <rect id="矩形备份-52" x="102" y="0" width="1" height="47.3321576"></rect>
                                <rect id="矩形备份-14" x="29.75" y="0" width="1" height="47.3321576"></rect>
                                <rect id="矩形备份-34" x="80.75" y="0" width="1" height="47.3321576"></rect>
                                <rect id="矩形备份-53" x="110.5" y="0" width="1" height="47.3321576"></rect>
                                <rect id="矩形备份-18" x="38.25" y="0" width="1" height="47.3321576"></rect>
                                <rect id="矩形备份-35" x="89.25" y="0" width="1" height="47.3321576"></rect>
                                <rect id="矩形备份-54" x="119" y="0" width="1" height="47.3321576"></rect>
                                <rect id="矩形备份-65" x="138.125" y="0" width="1" height="47.3321576"></rect>
                                <rect id="矩形备份-22" x="46.75" y="0" width="1" height="47.3321576"></rect>
                                <rect id="矩形备份-36" x="97.75" y="0" width="1" height="47.3321576"></rect>
                                <rect id="矩形备份-55" x="127.5" y="0" width="1" height="47.3321576"></rect>
                                <rect id="矩形备份-66" x="146.625" y="0" width="1" height="47.3321576"></rect>
                                <rect id="矩形备份-2" x="2.125" y="0" width="1" height="47.3321576"></rect>
                                <rect id="矩形备份-37" x="53.125" y="0" width="1" height="47.3321576"></rect>
                                <rect id="矩形备份-7" x="10.625" y="0" width="1" height="47.3321576"></rect>
                                <rect id="矩形备份-38" x="61.625" y="0" width="1" height="47.3321576"></rect>
                                <rect id="矩形备份-11" x="19.125" y="0" width="1" height="47.3321576"></rect>
                                <rect id="矩形备份-39" x="70.125" y="0" width="1" height="47.3321576"></rect>
                                <rect id="矩形备份-15" x="27.625" y="0" width="1" height="47.3321576"></rect>
                                <rect id="矩形备份-40" x="78.625" y="0" width="1" height="47.3321576"></rect>
                                <rect id="矩形备份-56" x="108.375" y="0" width="1" height="47.3321576"></rect>
                                <rect id="矩形备份-19" x="36.125" y="0" width="1" height="47.3321576"></rect>
                                <rect id="矩形备份-41" x="87.125" y="0" width="1" height="47.3321576"></rect>
                                <rect id="矩形备份-57" x="116.875" y="0" width="1" height="47.3321576"></rect>
                                <rect id="矩形备份-67" x="136" y="0" width="1" height="47.3321576"></rect>
                                <rect id="矩形备份-23" x="44.625" y="0" width="1" height="47.3321576"></rect>
                                <rect id="矩形备份-42" x="95.625" y="0" width="1" height="47.3321576"></rect>
                                <rect id="矩形备份-58" x="125.375" y="0" width="1" height="47.3321576"></rect>
                                <rect id="矩形备份-68" x="144.5" y="0" width="1" height="47.3321576"></rect>
                                <rect id="矩形备份-4" x="6.375" y="0" width="1" height="47.3321576"></rect>
                                <rect id="矩形备份-43" x="57.375" y="0" width="1" height="47.3321576"></rect>
                                <rect id="矩形备份-8" x="14.875" y="0" width="1" height="47.3321576"></rect>
                                <rect id="矩形备份-44" x="65.875" y="0" width="1" height="47.3321576"></rect>
                                <rect id="矩形备份-12" x="23.375" y="0" width="1" height="47.3321576"></rect>
                                <rect id="矩形备份-45" x="74.375" y="0" width="1" height="47.3321576"></rect>
                                <rect id="矩形备份-59" x="104.125" y="0" width="1" height="47.3321576"></rect>
                                <rect id="矩形备份-16" x="31.875" y="0" width="1" height="47.3321576"></rect>
                                <rect id="矩形备份-46" x="82.875" y="0" width="1" height="47.3321576"></rect>
                                <rect id="矩形备份-60" x="112.625" y="0" width="1" height="47.3321576"></rect>
                                <rect id="矩形备份-69" x="131.75" y="0" width="1" height="47.3321576"></rect>
                                <rect id="矩形备份-20" x="40.375" y="0" width="1" height="47.3321576"></rect>
                                <rect id="矩形备份-47" x="91.375" y="0" width="1" height="47.3321576"></rect>
                                <rect id="矩形备份-61" x="121.125" y="0" width="1" height="47.3321576"></rect>
                                <rect id="矩形备份-70" x="140.25" y="0" width="1" height="47.3321576"></rect>
                                <rect id="矩形备份-24" x="48.875" y="0" width="1" height="47.3321576"></rect>
                                <rect id="矩形备份-48" x="99.875" y="0" width="1" height="47.3321576"></rect>
                                <rect id="矩形备份-62" x="129.625" y="0" width="1" height="47.3321576"></rect>
                                <rect id="矩形备份-71" x="148.75" y="0" width="1" height="47.3321576"></rect>
                            </g>
                        </g>
                    </g>
                    <g id="编组-5" transform="translate(76.5, 21.9259) scale(1, -1) translate(-76.5, -21.9259)">
                        <mask id="mask-6" fill="white">
                            <use xlink:href="#path-5"></use>
                        </mask>
                        <g id="路径"></g>
                        <g id="编组-4" mask="url(#mask-6)" fill="url(#linearGradient-4)">
                            <g transform="translate(0, -3.4803)">
                                <rect id="矩形" x="0" y="0" width="1" height="47.3321576"></rect>
                                <rect id="矩形备份-25" x="51" y="0" width="1" height="47.3321576"></rect>
                                <rect id="矩形备份-5" x="8.5" y="0" width="1" height="47.3321576"></rect>
                                <rect id="矩形备份-26" x="59.5" y="0" width="1" height="47.3321576"></rect>
                                <rect id="矩形备份-9" x="17" y="0" width="1" height="47.3321576"></rect>
                                <rect id="矩形备份-27" x="68" y="0" width="1" height="47.3321576"></rect>
                                <rect id="矩形备份-13" x="25.5" y="0" width="1" height="47.3321576"></rect>
                                <rect id="矩形备份-28" x="76.5" y="0" width="1" height="47.3321576"></rect>
                                <rect id="矩形备份-49" x="106.25" y="0" width="1" height="47.3321576"></rect>
                                <rect id="矩形备份-17" x="34" y="0" width="1" height="47.3321576"></rect>
                                <rect id="矩形备份-29" x="85" y="0" width="1" height="47.3321576"></rect>
                                <rect id="矩形备份-50" x="114.75" y="0" width="1" height="47.3321576"></rect>
                                <rect id="矩形备份-63" x="133.875" y="0" width="1" height="47.3321576"></rect>
                                <rect id="矩形备份-21" x="42.5" y="0" width="1" height="47.3321576"></rect>
                                <rect id="矩形备份-30" x="93.5" y="0" width="1" height="47.3321576"></rect>
                                <rect id="矩形备份-51" x="123.25" y="0" width="1" height="47.3321576"></rect>
                                <rect id="矩形备份-64" x="142.375" y="0" width="1" height="47.3321576"></rect>
                                <rect id="矩形备份-3" x="4.25" y="0" width="1" height="47.3321576"></rect>
                                <rect id="矩形备份-31" x="55.25" y="0" width="1" height="47.3321576"></rect>
                                <rect id="矩形备份-6" x="12.75" y="0" width="1" height="47.3321576"></rect>
                                <rect id="矩形备份-32" x="63.75" y="0" width="1" height="47.3321576"></rect>
                                <rect id="矩形备份-10" x="21.25" y="0" width="1" height="47.3321576"></rect>
                                <rect id="矩形备份-33" x="72.25" y="0" width="1" height="47.3321576"></rect>
                                <rect id="矩形备份-52" x="102" y="0" width="1" height="47.3321576"></rect>
                                <rect id="矩形备份-14" x="29.75" y="0" width="1" height="47.3321576"></rect>
                                <rect id="矩形备份-34" x="80.75" y="0" width="1" height="47.3321576"></rect>
                                <rect id="矩形备份-53" x="110.5" y="0" width="1" height="47.3321576"></rect>
                                <rect id="矩形备份-18" x="38.25" y="0" width="1" height="47.3321576"></rect>
                                <rect id="矩形备份-35" x="89.25" y="0" width="1" height="47.3321576"></rect>
                                <rect id="矩形备份-54" x="119" y="0" width="1" height="47.3321576"></rect>
                                <rect id="矩形备份-65" x="138.125" y="0" width="1" height="47.3321576"></rect>
                                <rect id="矩形备份-22" x="46.75" y="0" width="1" height="47.3321576"></rect>
                                <rect id="矩形备份-36" x="97.75" y="0" width="1" height="47.3321576"></rect>
                                <rect id="矩形备份-55" x="127.5" y="0" width="1" height="47.3321576"></rect>
                                <rect id="矩形备份-66" x="146.625" y="0" width="1" height="47.3321576"></rect>
                                <rect id="矩形备份-2" x="2.125" y="0" width="1" height="47.3321576"></rect>
                                <rect id="矩形备份-37" x="53.125" y="0" width="1" height="47.3321576"></rect>
                                <rect id="矩形备份-7" x="10.625" y="0" width="1" height="47.3321576"></rect>
                                <rect id="矩形备份-38" x="61.625" y="0" width="1" height="47.3321576"></rect>
                                <rect id="矩形备份-11" x="19.125" y="0" width="1" height="47.3321576"></rect>
                                <rect id="矩形备份-39" x="70.125" y="0" width="1" height="47.3321576"></rect>
                                <rect id="矩形备份-15" x="27.625" y="0" width="1" height="47.3321576"></rect>
                                <rect id="矩形备份-40" x="78.625" y="0" width="1" height="47.3321576"></rect>
                                <rect id="矩形备份-56" x="108.375" y="0" width="1" height="47.3321576"></rect>
                                <rect id="矩形备份-19" x="36.125" y="0" width="1" height="47.3321576"></rect>
                                <rect id="矩形备份-41" x="87.125" y="0" width="1" height="47.3321576"></rect>
                                <rect id="矩形备份-57" x="116.875" y="0" width="1" height="47.3321576"></rect>
                                <rect id="矩形备份-67" x="136" y="0" width="1" height="47.3321576"></rect>
                                <rect id="矩形备份-23" x="44.625" y="0" width="1" height="47.3321576"></rect>
                                <rect id="矩形备份-42" x="95.625" y="0" width="1" height="47.3321576"></rect>
                                <rect id="矩形备份-58" x="125.375" y="0" width="1" height="47.3321576"></rect>
                                <rect id="矩形备份-68" x="144.5" y="0" width="1" height="47.3321576"></rect>
                                <rect id="矩形备份-4" x="6.375" y="0" width="1" height="47.3321576"></rect>
                                <rect id="矩形备份-43" x="57.375" y="0" width="1" height="47.3321576"></rect>
                                <rect id="矩形备份-8" x="14.875" y="0" width="1" height="47.3321576"></rect>
                                <rect id="矩形备份-44" x="65.875" y="0" width="1" height="47.3321576"></rect>
                                <rect id="矩形备份-12" x="23.375" y="0" width="1" height="47.3321576"></rect>
                                <rect id="矩形备份-45" x="74.375" y="0" width="1" height="47.3321576"></rect>
                                <rect id="矩形备份-59" x="104.125" y="0" width="1" height="47.3321576"></rect>
                                <rect id="矩形备份-16" x="31.875" y="0" width="1" height="47.3321576"></rect>
                                <rect id="矩形备份-46" x="82.875" y="0" width="1" height="47.3321576"></rect>
                                <rect id="矩形备份-60" x="112.625" y="0" width="1" height="47.3321576"></rect>
                                <rect id="矩形备份-69" x="131.75" y="0" width="1" height="47.3321576"></rect>
                                <rect id="矩形备份-20" x="40.375" y="0" width="1" height="47.3321576"></rect>
                                <rect id="矩形备份-47" x="91.375" y="0" width="1" height="47.3321576"></rect>
                                <rect id="矩形备份-61" x="121.125" y="0" width="1" height="47.3321576"></rect>
                                <rect id="矩形备份-70" x="140.25" y="0" width="1" height="47.3321576"></rect>
                                <rect id="矩形备份-24" x="48.875" y="0" width="1" height="47.3321576"></rect>
                                <rect id="矩形备份-48" x="99.875" y="0" width="1" height="47.3321576"></rect>
                                <rect id="矩形备份-62" x="129.625" y="0" width="1" height="47.3321576"></rect>
                                <rect id="矩形备份-71" x="148.75" y="0" width="1" height="47.3321576"></rect>
                            </g>
                        </g>
                    </g>
                </g>
                <g id="FreeStream" transform="translate(158.512, 13.1807)" fill="#FFFFFF" fill-rule="nonzero">
                    <path d="M0.648,7.63527273 C0.696,7.58727273 0.72,7.49127273 0.72,7.34727273 C0.72,7.25127273 0.696,7.11927273 0.648,6.95127273 L0.468,2.37927273 C0.42,2.28327273 0.396,2.12727273 0.396,1.91127273 C0.42,1.86327273 0.432,1.75527273 0.432,1.58727273 C0.432,1.51527273 0.444,1.47927273 0.468,1.47927273 L0.468,1.29927273 C0.468,1.22727273 0.456,1.10727273 0.432,0.939272727 C0.408,0.891272727 0.396,0.831272727 0.396,0.759272727 C0.396,0.591272727 0.42,0.447272727 0.468,0.327272727 C0.636,0.231272727 0.78,0.183272727 0.9,0.183272727 L2.304,0.183272727 C2.496,0.351272727 2.712,0.435272727 2.952,0.435272727 C3.24,0.435272727 3.528,0.375272727 3.816,0.255272727 C4.104,0.207272727 4.416,0.183272727 4.752,0.183272727 L5.184,0.183272727 C5.232,0.183272727 5.304,0.195272727 5.4,0.219272727 C5.568,0.243272727 5.664,0.255272727 5.688,0.255272727 C5.832,0.255272727 6.072,0.243272727 6.408,0.219272727 C6.792,0.195272727 7.044,0.183272727 7.164,0.183272727 L7.524,0.183272727 C7.836,0.183272727 7.992,0.303272727 7.992,0.543272727 C7.992,1.16727273 7.728,1.56327273 7.2,1.73127273 C6.744,1.89927273 6.336,1.98327273 5.976,1.98327273 L5.76,1.98327273 L5.652,1.98327273 C5.652,1.93527273 5.496,1.88727273 5.184,1.83927273 L4.068,1.83927273 C3.708,1.88727273 3.48,1.91127273 3.384,1.91127273 C3.312,1.95927273 3.264,1.98327273 3.24,1.98327273 L3.096,1.98327273 C2.784,1.98327273 2.478,1.95927273 2.178,1.91127273 C1.878,1.86327273 1.572,1.83927273 1.26,1.83927273 C1.26,2.19927273 1.296,2.52327273 1.368,2.81127273 C1.512,3.12327273 1.584,3.42327273 1.584,3.71127273 C1.584,4.38327273 1.548,4.89927273 1.476,5.25927273 C1.452,5.69127273 1.44,6.11127273 1.44,6.51927273 L1.44,7.63527273 C1.44,7.89927273 1.56,8.03127273 1.8,8.03127273 L5.04,8.03127273 C5.184,8.00727273 5.304,7.94727273 5.4,7.85127273 L5.688,7.85127273 C6.384,7.85127273 6.732,8.15127273 6.732,8.75127273 L6.732,9.07527273 C6.516,9.21927273 6.276,9.29127273 6.012,9.29127273 C5.772,9.33927273 5.496,9.36327273 5.184,9.36327273 L4.752,9.36327273 C4.56,9.36327273 4.392,9.32727273 4.248,9.25527273 C4.176,9.15927273 4.116,9.11127273 4.068,9.11127273 C3.9,9.20727273 3.78,9.25527273 3.708,9.25527273 C3.42,9.25527273 3.132,9.26727273 2.844,9.29127273 C2.508,9.33927273 2.208,9.36327273 1.944,9.36327273 C1.848,9.36327273 1.728,9.34527273 1.584,9.30927273 C1.44,9.27327273 1.392,9.30327273 1.44,9.39927273 C1.488,9.63927273 1.488,9.83127273 1.44,9.97527273 L1.368,10.1912727 C1.464,10.2872727 1.512,10.4552727 1.512,10.6952727 L1.656,12.5312727 C1.704,13.1072727 1.728,13.5992727 1.728,14.0072727 L1.728,14.7632727 C1.728,14.9312727 1.68,15.0152727 1.584,15.0152727 C1.584,15.1352727 1.56,15.4472727 1.512,15.9512727 L1.512,16.9232727 C1.512,17.0192727 1.536,17.0912727 1.584,17.1392727 C1.632,17.3072727 1.656,17.4272727 1.656,17.4992727 C1.656,17.7152727 1.608,17.9912727 1.512,18.3272727 C1.464,18.6632727 1.296,18.8312727 1.008,18.8312727 C0.336,18.8312727 0,18.5312727 0,17.9312727 C0,17.3792727 0.072,16.8032727 0.216,16.2032727 C0.384,15.6752727 0.528,15.1232727 0.648,14.5472727 C0.648,14.4752727 0.588,14.0552727 0.468,13.2872727 C0.468,12.5672727 0.528,12.1712727 0.648,12.0992727 C0.528,11.8832727 0.468,11.5112727 0.468,10.9832727 L0.468,10.3712727 L0.648,7.63527273 Z" id="路径"></path>
                    <path d="M13.716,17.5352727 C13.62,17.1272727 13.62,16.6952727 13.716,16.2392727 C13.836,15.8312727 13.92,15.4232727 13.968,15.0152727 L13.968,13.7192727 C14.016,13.1192727 13.956,12.4952727 13.788,11.8472727 C13.788,11.4152727 13.764,11.0672727 13.716,10.8032727 C13.716,10.5152727 13.668,10.1672727 13.572,9.75927273 L13.536,9.75927273 C13.08,9.75927273 12.768,9.91527273 12.6,10.2272727 C12.504,10.5392727 12.3,10.7552727 11.988,10.8752727 L11.412,10.9112727 C11.268,10.9592727 10.956,11.0792727 10.476,11.2712727 C10.62,10.8872727 10.8,10.6232727 11.016,10.4792727 C11.4,10.3352727 11.616,10.2392727 11.664,10.1912727 C11.928,9.90327273 12.216,9.47127273 12.528,8.89527273 C12.912,8.36727273 13.332,8.10327273 13.788,8.10327273 C14.148,8.10327273 14.442,8.31927273 14.67,8.75127273 C14.898,9.18327273 15.144,9.39927273 15.408,9.39927273 C15.552,9.37527273 15.66,9.26727273 15.732,9.07527273 C15.852,8.90727273 15.96,8.69727273 16.056,8.44527273 C16.152,8.19327273 16.32,7.97127273 16.56,7.77927273 C16.752,7.63527273 17.028,7.56327273 17.388,7.56327273 C18.108,7.56327273 18.576,7.80327273 18.792,8.28327273 C19.056,8.78727273 19.308,9.20727273 19.548,9.54327273 C19.74,9.73527273 19.872,9.84927273 19.944,9.88527273 C20.016,9.92127273 20.052,10.0352727 20.052,10.2272727 C20.052,10.5152727 19.884,10.6712727 19.548,10.6952727 C19.116,10.7672727 18.768,10.5992727 18.504,10.1912727 C18.336,9.75927273 18.036,9.48327273 17.604,9.36327273 C17.004,9.91527273 16.56,10.4552727 16.272,10.9832727 L15.732,13.2152727 C15.66,13.6952727 15.588,14.0432727 15.516,14.2592727 C15.492,14.5232727 15.456,14.8712727 15.408,15.3032727 C15.336,15.4472727 15.264,15.7352727 15.192,16.1672727 L15.3,16.9232727 C15.42,17.0672727 15.456,17.4032727 15.408,17.9312727 C15.408,18.4352727 15.168,18.7232727 14.688,18.7952727 C14.376,18.7952727 14.136,18.6392727 13.968,18.3272727 C13.8,18.0632727 13.716,17.7992727 13.716,17.5352727 Z" id="路径"></path>
                    <path d="M22.86,14.6552727 C22.884,14.4392727 22.992,14.0192727 23.184,13.3952727 C23.232,12.8192727 23.256,12.4112727 23.256,12.1712727 C23.424,11.8832727 23.544,11.4872727 23.616,10.9832727 C23.784,10.5512727 24.024,10.1672727 24.336,9.83127273 C24.432,9.66327273 24.672,9.35127273 25.056,8.89527273 C25.464,8.51127273 25.752,8.23527273 25.92,8.06727273 C26.4,7.80327273 26.928,7.67127273 27.504,7.67127273 C27.936,7.67127273 28.344,7.79127273 28.728,8.03127273 C29.064,8.27127273 29.34,8.55927273 29.556,8.89527273 C29.844,9.23127273 30.036,9.59127273 30.132,9.97527273 C30.276,10.4312727 30.348,10.8572727 30.348,11.2532727 C30.348,11.6492727 30.312,12.0872727 30.24,12.5672727 C30.216,13.0952727 29.916,13.3592727 29.34,13.3592727 L29.088,13.3592727 C28.992,13.3592727 28.932,13.3352727 28.908,13.2872727 L26.568,13.2872727 C25.8,13.3352727 25.128,13.5512727 24.552,13.9352727 L24.552,14.3312727 C24.552,15.1472727 24.72,15.8792727 25.056,16.5272727 C25.464,17.1752727 26.112,17.4992727 27,17.4992727 L27.288,17.4992727 C27.816,17.2352727 28.32,16.9352727 28.8,16.5992727 C29.256,16.3112727 29.772,16.0592727 30.348,15.8432727 L30.348,16.1672727 C30.348,16.5272727 30.27,16.7732727 30.114,16.9052727 C29.958,17.0372727 29.76,17.2352727 29.52,17.4992727 C29.064,17.9792727 28.608,18.3392727 28.152,18.5792727 C27.72,18.8672727 27.156,19.0112727 26.46,19.0112727 C25.308,19.0112727 24.408,18.5672727 23.76,17.6792727 C23.16,16.8632727 22.86,15.8672727 22.86,14.6912727 L22.86,14.6552727 Z M24.804,12.1712727 C25.236,12.1952727 25.584,12.2312727 25.848,12.2792727 C26.088,12.3752727 26.436,12.4232727 26.892,12.4232727 C27.348,12.4232727 27.792,12.3392727 28.224,12.1712727 C28.68,11.9552727 28.908,11.4992727 28.908,10.8032727 C28.908,10.4912727 28.842,10.1192727 28.71,9.68727273 C28.578,9.25527273 28.224,9.03927273 27.648,9.03927273 C26.976,9.03927273 26.316,9.29127273 25.668,9.79527273 C25.068,10.3712727 24.768,11.0192727 24.768,11.7392727 L24.768,11.8832727 C24.792,12.0272727 24.804,12.1232727 24.804,12.1712727 Z" id="形状"></path>
                    <path d="M33.552,14.6552727 C33.576,14.4392727 33.684,14.0192727 33.876,13.3952727 C33.924,12.8192727 33.948,12.4112727 33.948,12.1712727 C34.116,11.8832727 34.236,11.4872727 34.308,10.9832727 C34.476,10.5512727 34.716,10.1672727 35.028,9.83127273 C35.124,9.66327273 35.364,9.35127273 35.748,8.89527273 C36.156,8.51127273 36.444,8.23527273 36.612,8.06727273 C37.092,7.80327273 37.62,7.67127273 38.196,7.67127273 C38.628,7.67127273 39.036,7.79127273 39.42,8.03127273 C39.756,8.27127273 40.032,8.55927273 40.248,8.89527273 C40.536,9.23127273 40.728,9.59127273 40.824,9.97527273 C40.968,10.4312727 41.04,10.8572727 41.04,11.2532727 C41.04,11.6492727 41.004,12.0872727 40.932,12.5672727 C40.908,13.0952727 40.608,13.3592727 40.032,13.3592727 L39.78,13.3592727 C39.684,13.3592727 39.624,13.3352727 39.6,13.2872727 L37.26,13.2872727 C36.492,13.3352727 35.82,13.5512727 35.244,13.9352727 L35.244,14.3312727 C35.244,15.1472727 35.412,15.8792727 35.748,16.5272727 C36.156,17.1752727 36.804,17.4992727 37.692,17.4992727 L37.98,17.4992727 C38.508,17.2352727 39.012,16.9352727 39.492,16.5992727 C39.948,16.3112727 40.464,16.0592727 41.04,15.8432727 L41.04,16.1672727 C41.04,16.5272727 40.962,16.7732727 40.806,16.9052727 C40.65,17.0372727 40.452,17.2352727 40.212,17.4992727 C39.756,17.9792727 39.3,18.3392727 38.844,18.5792727 C38.412,18.8672727 37.848,19.0112727 37.152,19.0112727 C36,19.0112727 35.1,18.5672727 34.452,17.6792727 C33.852,16.8632727 33.552,15.8672727 33.552,14.6912727 L33.552,14.6552727 Z M35.496,12.1712727 C35.928,12.1952727 36.276,12.2312727 36.54,12.2792727 C36.78,12.3752727 37.128,12.4232727 37.584,12.4232727 C38.04,12.4232727 38.484,12.3392727 38.916,12.1712727 C39.372,11.9552727 39.6,11.4992727 39.6,10.8032727 C39.6,10.4912727 39.534,10.1192727 39.402,9.68727273 C39.27,9.25527273 38.916,9.03927273 38.34,9.03927273 C37.668,9.03927273 37.008,9.29127273 36.36,9.79527273 C35.76,10.3712727 35.46,11.0192727 35.46,11.7392727 L35.46,11.8832727 C35.484,12.0272727 35.496,12.1232727 35.496,12.1712727 Z" id="形状"></path>
                    <path d="M43.812,15.6272727 C43.812,15.0032727 43.854,14.3852727 43.938,13.7732727 C44.022,13.1612727 44.268,12.6392727 44.676,12.2072727 C44.892,12.2072727 45.036,12.2792727 45.108,12.4232727 C45.204,12.6872727 45.168,12.9512727 45,13.2152727 C44.928,13.5032727 44.892,13.7792727 44.892,14.0432727 C44.892,14.7872727 45.036,15.4352727 45.324,15.9872727 C45.684,16.6112727 46.2,17.0792727 46.872,17.3912727 C48,17.1032727 48.936,16.5152727 49.68,15.6272727 C50.496,14.8592727 50.904,13.8272727 50.904,12.5312727 C50.88,12.3632727 50.796,12.0992727 50.652,11.7392727 C50.58,11.3312727 50.436,11.0432727 50.22,10.8752727 C50.052,10.7552727 49.932,10.6712727 49.86,10.6232727 C49.524,10.1912727 49.206,9.82527273 48.906,9.52527273 C48.606,9.22527273 48.312,8.85927273 48.024,8.42727273 C47.808,8.21127273 47.628,7.99527273 47.484,7.77927273 L47.232,7.16727273 C46.776,6.54327273 46.422,5.97927273 46.17,5.47527273 C45.918,4.97127273 45.744,4.35927273 45.648,3.63927273 C45.648,3.23127273 45.738,2.76927273 45.918,2.25327273 C46.098,1.73727273 46.404,1.28727273 46.836,0.903272727 C47.244,0.591272727 47.544,0.375272727 47.736,0.255272727 C48.144,0.207272727 48.552,0.123272727 48.96,0.00327272727 C49.536,-0.0207272727 49.992,0.0872727273 50.328,0.327272727 C50.736,0.615272727 50.94,1.03527273 50.94,1.58727273 L50.94,1.73127273 C50.748,1.99527273 50.496,2.12727273 50.184,2.12727273 C50.184,2.07927273 50.16,1.89927273 50.112,1.58727273 C50.112,1.32327273 50.04,1.10727273 49.896,0.939272727 L49.608,1.11927273 C48.984,1.16727273 48.354,1.40127273 47.718,1.82127273 C47.082,2.24127273 46.764,2.82327273 46.764,3.56727273 C46.812,3.85527273 46.848,4.17927273 46.872,4.53927273 C46.992,4.82727273 47.052,5.11527273 47.052,5.40327273 C47.412,5.57127273 47.64,5.84727273 47.736,6.23127273 C47.856,6.71127273 48.096,7.02327273 48.456,7.16727273 C49.632,8.05527273 50.592,8.93127273 51.336,9.79527273 C52.104,10.7312727 52.536,11.9192727 52.632,13.3592727 L52.632,14.0792727 C52.512,14.4872727 52.356,14.8472727 52.164,15.1592727 C52.092,15.4712727 51.948,15.8072727 51.732,16.1672727 C51.42,16.7672727 50.784,17.3192727 49.824,17.8232727 C48.84,18.4712727 48,18.7952727 47.304,18.7952727 C46.44,18.7952727 45.648,18.4712727 44.928,17.8232727 C44.28,17.2472727 43.908,16.5152727 43.812,15.6272727 Z" id="路径"></path>
                    <path d="M57.636,16.7072727 C57.636,16.6592727 57.648,16.6232727 57.672,16.5992727 L57.996,13.7912727 C58.068,12.8792727 58.092,11.9432727 58.068,10.9832727 L58.068,9.75927273 C58.068,9.32727273 58.044,8.90727273 57.996,8.49927273 C57.828,8.59527273 57.576,8.66727273 57.24,8.71527273 C57,8.73927273 56.82,8.77527273 56.7,8.82327273 L56.664,8.82327273 C56.544,8.77527273 56.352,8.71527273 56.088,8.64327273 C55.704,8.54727273 55.488,8.47527273 55.44,8.42727273 L55.44,8.31927273 C55.44,8.00727273 55.536,7.77927273 55.728,7.63527273 C55.968,7.56327273 56.22,7.52727273 56.484,7.52727273 L56.556,7.52727273 L57.024,7.56327273 C57.432,7.56327273 57.768,7.43127273 58.032,7.16727273 L58.032,6.15927273 C58.032,5.70327273 58.044,5.19927273 58.068,4.64727273 C58.164,4.19127273 58.224,3.74727273 58.248,3.31527273 C58.344,2.95527273 58.464,2.77527273 58.608,2.77527273 L58.68,2.77527273 C58.776,2.94327273 58.932,3.11127273 59.148,3.27927273 C59.388,3.51927273 59.508,3.74727273 59.508,3.96327273 L59.508,6.51927273 L59.544,6.95127273 C59.592,6.99927273 59.676,7.02327273 59.796,7.02327273 L60.264,6.95127273 C60.552,6.99927273 60.864,7.02327273 61.2,7.02327273 C61.584,7.02327273 61.776,7.22727273 61.776,7.63527273 C61.824,7.77927273 61.752,7.92327273 61.56,8.06727273 C61.488,8.23527273 61.344,8.31927273 61.128,8.31927273 L59.544,8.39127273 C59.52,8.39127273 59.436,8.51127273 59.292,8.75127273 C59.268,8.99127273 59.232,9.26727273 59.184,9.57927273 L59.076,10.6232727 L59.076,10.9832727 C59.004,11.7752727 58.968,12.5672727 58.968,13.3592727 C58.968,14.2232727 59.004,14.9672727 59.076,15.5912727 C59.004,15.6152727 58.956,15.7112727 58.932,15.8792727 L58.932,16.2032727 C58.956,16.3232727 59.004,16.3832727 59.076,16.3832727 C59.124,16.4312727 59.148,16.4852727 59.148,16.5452727 C59.148,16.6052727 59.118,16.6352727 59.058,16.6352727 C58.998,16.6352727 58.968,16.6592727 58.968,16.7072727 C58.968,17.0912727 59.064,17.2832727 59.256,17.2832727 C59.544,17.2832727 59.76,17.0912727 59.904,16.7072727 C60.048,16.3712727 60.168,15.9992727 60.264,15.5912727 C60.48,15.2072727 60.672,14.8352727 60.84,14.4752727 C61.032,14.1632727 61.236,14.0072727 61.452,14.0072727 C61.668,14.0072727 61.776,14.1032727 61.776,14.2952727 L61.776,14.4392727 C61.536,15.0872727 61.308,15.6872727 61.092,16.2392727 C60.876,16.9352727 60.708,17.5712727 60.588,18.1472727 C60.324,18.5072727 60.108,18.7412727 59.94,18.8492727 C59.772,18.9572727 59.508,19.0112727 59.148,19.0112727 C58.644,19.0112727 58.266,18.7892727 58.014,18.3452727 C57.762,17.9012727 57.636,17.4752727 57.636,17.0672727 L57.636,16.7072727 Z" id="路径"></path>
                    <path d="M67.608,17.5352727 C67.512,17.1272727 67.512,16.6952727 67.608,16.2392727 C67.728,15.8312727 67.812,15.4232727 67.86,15.0152727 L67.86,13.7192727 C67.908,13.1192727 67.848,12.4952727 67.68,11.8472727 C67.68,11.4152727 67.656,11.0672727 67.608,10.8032727 C67.608,10.5152727 67.56,10.1672727 67.464,9.75927273 L67.428,9.75927273 C66.972,9.75927273 66.66,9.91527273 66.492,10.2272727 C66.396,10.5392727 66.192,10.7552727 65.88,10.8752727 L65.304,10.9112727 C65.16,10.9592727 64.848,11.0792727 64.368,11.2712727 C64.512,10.8872727 64.692,10.6232727 64.908,10.4792727 C65.292,10.3352727 65.508,10.2392727 65.556,10.1912727 C65.82,9.90327273 66.108,9.47127273 66.42,8.89527273 C66.804,8.36727273 67.224,8.10327273 67.68,8.10327273 C68.04,8.10327273 68.334,8.31927273 68.562,8.75127273 C68.79,9.18327273 69.036,9.39927273 69.3,9.39927273 C69.444,9.37527273 69.552,9.26727273 69.624,9.07527273 C69.744,8.90727273 69.852,8.69727273 69.948,8.44527273 C70.044,8.19327273 70.212,7.97127273 70.452,7.77927273 C70.644,7.63527273 70.92,7.56327273 71.28,7.56327273 C72,7.56327273 72.468,7.80327273 72.684,8.28327273 C72.948,8.78727273 73.2,9.20727273 73.44,9.54327273 C73.632,9.73527273 73.764,9.84927273 73.836,9.88527273 C73.908,9.92127273 73.944,10.0352727 73.944,10.2272727 C73.944,10.5152727 73.776,10.6712727 73.44,10.6952727 C73.008,10.7672727 72.66,10.5992727 72.396,10.1912727 C72.228,9.75927273 71.928,9.48327273 71.496,9.36327273 C70.896,9.91527273 70.452,10.4552727 70.164,10.9832727 L69.624,13.2152727 C69.552,13.6952727 69.48,14.0432727 69.408,14.2592727 C69.384,14.5232727 69.348,14.8712727 69.3,15.3032727 C69.228,15.4472727 69.156,15.7352727 69.084,16.1672727 L69.192,16.9232727 C69.312,17.0672727 69.348,17.4032727 69.3,17.9312727 C69.3,18.4352727 69.06,18.7232727 68.58,18.7952727 C68.268,18.7952727 68.028,18.6392727 67.86,18.3272727 C67.692,18.0632727 67.608,17.7992727 67.608,17.5352727 Z" id="路径"></path>
                    <path d="M76.752,14.6552727 C76.776,14.4392727 76.884,14.0192727 77.076,13.3952727 C77.124,12.8192727 77.148,12.4112727 77.148,12.1712727 C77.316,11.8832727 77.436,11.4872727 77.508,10.9832727 C77.676,10.5512727 77.916,10.1672727 78.228,9.83127273 C78.324,9.66327273 78.564,9.35127273 78.948,8.89527273 C79.356,8.51127273 79.644,8.23527273 79.812,8.06727273 C80.292,7.80327273 80.82,7.67127273 81.396,7.67127273 C81.828,7.67127273 82.236,7.79127273 82.62,8.03127273 C82.956,8.27127273 83.232,8.55927273 83.448,8.89527273 C83.736,9.23127273 83.928,9.59127273 84.024,9.97527273 C84.168,10.4312727 84.24,10.8572727 84.24,11.2532727 C84.24,11.6492727 84.204,12.0872727 84.132,12.5672727 C84.108,13.0952727 83.808,13.3592727 83.232,13.3592727 L82.98,13.3592727 C82.884,13.3592727 82.824,13.3352727 82.8,13.2872727 L80.46,13.2872727 C79.692,13.3352727 79.02,13.5512727 78.444,13.9352727 L78.444,14.3312727 C78.444,15.1472727 78.612,15.8792727 78.948,16.5272727 C79.356,17.1752727 80.004,17.4992727 80.892,17.4992727 L81.18,17.4992727 C81.708,17.2352727 82.212,16.9352727 82.692,16.5992727 C83.148,16.3112727 83.664,16.0592727 84.24,15.8432727 L84.24,16.1672727 C84.24,16.5272727 84.162,16.7732727 84.006,16.9052727 C83.85,17.0372727 83.652,17.2352727 83.412,17.4992727 C82.956,17.9792727 82.5,18.3392727 82.044,18.5792727 C81.612,18.8672727 81.048,19.0112727 80.352,19.0112727 C79.2,19.0112727 78.3,18.5672727 77.652,17.6792727 C77.052,16.8632727 76.752,15.8672727 76.752,14.6912727 L76.752,14.6552727 Z M78.696,12.1712727 C79.128,12.1952727 79.476,12.2312727 79.74,12.2792727 C79.98,12.3752727 80.328,12.4232727 80.784,12.4232727 C81.24,12.4232727 81.684,12.3392727 82.116,12.1712727 C82.572,11.9552727 82.8,11.4992727 82.8,10.8032727 C82.8,10.4912727 82.734,10.1192727 82.602,9.68727273 C82.47,9.25527273 82.116,9.03927273 81.54,9.03927273 C80.868,9.03927273 80.208,9.29127273 79.56,9.79527273 C78.96,10.3712727 78.66,11.0192727 78.66,11.7392727 L78.66,11.8832727 C78.684,12.0272727 78.696,12.1232727 78.696,12.1712727 Z" id="形状"></path>
                    <path d="M88.092,16.5992727 C88.092,15.6392727 88.32,14.7992727 88.776,14.0792727 C89.304,13.3832727 89.856,12.7592727 90.432,12.2072727 C90.576,12.2552727 90.786,12.2132727 91.062,12.0812727 C91.338,11.9492727 91.572,11.8112727 91.764,11.6672727 L92.664,11.2712727 C92.904,11.0792727 93.144,10.9832727 93.384,10.9832727 L93.816,10.9832727 C93.888,11.0792727 93.924,11.1752727 93.924,11.2712727 C93.924,11.3672727 93.858,11.4152727 93.726,11.4152727 C93.594,11.4152727 93.492,11.4152727 93.42,11.4152727 L92.664,12.0632727 C92.472,12.2792727 92.172,12.3272727 91.764,12.2072727 C91.644,12.3272727 91.476,12.4472727 91.26,12.5672727 C91.116,12.7592727 91.008,12.9152727 90.936,13.0352727 C90.552,13.3472727 90.228,13.8152727 89.964,14.4392727 C89.58,15.0152727 89.388,15.5432727 89.388,16.0232727 C89.388,16.8632727 89.736,17.2832727 90.432,17.2832727 C90.6,17.2832727 90.876,17.1752727 91.26,16.9592727 C91.716,16.7432727 92.112,16.4792727 92.448,16.1672727 C92.856,15.8072727 93.216,15.4832727 93.528,15.1952727 C93.912,15.0032727 94.116,14.7632727 94.14,14.4752727 C94.236,14.3792727 94.284,14.1272727 94.284,13.7192727 C94.284,13.3832727 94.284,13.1552727 94.284,13.0352727 L94.392,12.4232727 C94.512,12.2072727 94.572,11.9552727 94.572,11.6672727 C94.572,11.4992727 94.512,11.3672727 94.392,11.2712727 C94.32,11.1752727 94.284,11.0432727 94.284,10.8752727 C94.284,10.7552727 94.302,10.6832727 94.338,10.6592727 C94.374,10.6352727 94.392,10.5032727 94.392,10.2632727 C94.392,10.0712727 94.236,9.78327273 93.924,9.39927273 C93.66,9.06327273 93.384,8.89527273 93.096,8.89527273 C92.472,8.89527273 91.956,8.95527273 91.548,9.07527273 C91.212,9.21927273 90.78,9.49527273 90.252,9.90327273 C89.892,10.0952727 89.544,10.4192727 89.208,10.8752727 C88.92,11.4512727 88.476,11.7392727 87.876,11.7392727 L87.876,11.2712727 C87.996,11.1752727 88.08,11.0552727 88.128,10.9112727 L88.632,10.4792727 C89.136,9.87927273 89.766,9.25527273 90.522,8.60727273 C91.278,7.95927273 92.112,7.63527273 93.024,7.63527273 C93.984,7.63527273 94.722,8.01327273 95.238,8.76927273 C95.754,9.52527273 96.012,10.3172727 96.012,11.1452727 C96.012,11.9732727 95.952,12.7232727 95.832,13.3952727 C95.736,14.1632727 95.688,14.8952727 95.688,15.5912727 L95.688,16.9592727 C95.688,17.1752727 95.796,17.2832727 96.012,17.2832727 C96.132,17.2832727 96.24,17.2352727 96.336,17.1392727 C96.576,17.1392727 96.72,17.1272727 96.768,17.1032727 L97.596,16.1672727 L97.74,16.1672727 C97.86,16.1672727 97.92,16.3232727 97.92,16.6352727 C97.92,16.8512727 97.896,16.9472727 97.848,16.9232727 L97.596,17.1392727 C97.332,17.5472727 97.104,17.9432727 96.912,18.3272727 C96.864,18.7592727 96.528,18.9752727 95.904,18.9752727 C95.544,18.9752727 95.256,18.8552727 95.04,18.6152727 C94.872,18.4952727 94.722,18.3092727 94.59,18.0572727 C94.458,17.8052727 94.368,17.4992727 94.32,17.1392727 C94.296,16.9232727 94.224,16.6712727 94.104,16.3832727 C93.864,16.4792727 93.66,16.6232727 93.492,16.8152727 L93.168,17.1392727 C92.832,17.5712727 92.4,17.9672727 91.872,18.3272727 C91.32,18.7592727 90.756,18.9752727 90.18,18.9752727 L90.072,18.9752727 C89.784,18.7832727 89.544,18.6392727 89.352,18.5432727 C89.16,18.4952727 89.004,18.4232727 88.884,18.3272727 C88.812,18.2552727 88.734,18.1292727 88.65,17.9492727 C88.566,17.7692727 88.452,17.4872727 88.308,17.1032727 C88.308,17.0792727 88.248,17.0192727 88.128,16.9232727 C88.104,16.8512727 88.092,16.7792727 88.092,16.7072727 L88.092,16.5992727 Z" id="路径"></path>
                    <path d="M101.016,17.3912727 C101.016,16.7192727 101.016,15.7472727 101.016,14.4752727 C101.088,13.2032727 101.172,12.3032727 101.268,11.7752727 C101.268,11.7512727 101.292,11.5832727 101.34,11.2712727 C101.436,11.0072727 101.484,10.8152727 101.484,10.6952727 C101.556,10.4792727 101.508,10.1792727 101.34,9.79527273 C101.196,9.45927273 100.98,9.23127273 100.692,9.11127273 C100.668,9.11127273 100.506,9.33927273 100.206,9.79527273 C99.906,10.2512727 99.744,10.4792727 99.72,10.4792727 C99.528,10.4792727 99.432,10.3892727 99.432,10.2092727 C99.432,10.0292727 99.462,9.93327273 99.522,9.92127273 C99.582,9.90927273 99.66,9.63927273 99.756,9.11127273 C99.9,8.65527273 100.2,8.41527273 100.656,8.39127273 C100.968,8.39127273 101.196,8.42727273 101.34,8.49927273 C101.556,8.64327273 101.784,8.83527273 102.024,9.07527273 C102.312,8.69127273 102.636,8.35527273 102.996,8.06727273 C103.404,7.80327273 103.86,7.65927273 104.364,7.63527273 C104.652,7.58727273 104.928,7.65927273 105.192,7.85127273 C105.48,8.13927273 105.72,8.40327273 105.912,8.64327273 C106.176,8.90727273 106.392,9.12327273 106.56,9.29127273 C106.68,9.55527273 106.806,9.68727273 106.938,9.68727273 C107.07,9.68727273 107.184,9.55527273 107.28,9.29127273 C107.448,9.12327273 107.616,8.90727273 107.784,8.64327273 L108.468,7.77927273 C108.708,7.61127273 109.08,7.47927273 109.584,7.38327273 C110.424,7.38327273 111.096,7.80327273 111.6,8.64327273 C112.128,9.43527273 112.392,10.1912727 112.392,10.9112727 C112.392,11.2952727 112.356,11.7092727 112.284,12.1532727 C112.212,12.5972727 112.176,13.8752727 112.176,15.9872727 C112.176,16.2512727 112.212,16.4672727 112.284,16.6352727 C112.308,16.9232727 112.32,17.1992727 112.32,17.4632727 C112.32,17.5112727 112.308,17.6312727 112.284,17.8232727 L112.284,18.4352727 C112.212,18.6752727 111.996,18.7952727 111.636,18.7952727 C111.348,18.7952727 111.144,18.7352727 111.024,18.6152727 C110.904,18.5672727 110.844,18.3632727 110.844,18.0032727 C110.844,17.6912727 110.856,17.3432727 110.88,16.9592727 C110.976,16.6232727 111.024,16.2632727 111.024,15.8792727 L110.844,10.6232727 C110.844,10.3352727 110.7,9.92727273 110.412,9.39927273 C110.196,9.01527273 109.896,8.82327273 109.512,8.82327273 C109.248,8.82327273 109.008,8.91927273 108.792,9.11127273 C108.6,9.39927273 108.408,9.67527273 108.216,9.93927273 C108.12,10.2992727 108,10.6232727 107.856,10.9112727 L107.712,11.6672727 C107.52,12.4112727 107.328,13.2032727 107.136,14.0432727 C106.992,14.8832727 106.92,15.7112727 106.92,16.5272727 C106.92,16.7912727 106.98,16.9952727 107.1,17.1392727 C107.172,17.3792727 107.208,17.6072727 107.208,17.8232727 C107.208,18.0872727 107.124,18.3272727 106.956,18.5432727 C106.908,18.8312727 106.704,18.9752727 106.344,18.9752727 C106.104,18.9752727 105.888,18.8552727 105.696,18.6152727 C105.552,18.4952727 105.48,18.3032727 105.48,18.0392727 C105.408,17.0312727 105.408,16.0472727 105.48,15.0872727 C105.624,14.1272727 105.648,13.1552727 105.552,12.1712727 C105.552,11.5952727 105.516,11.0792727 105.444,10.6232727 C105.42,10.1672727 105.168,9.75927273 104.688,9.39927273 L104.58,9.54327273 C104.508,9.54327273 104.448,9.49527273 104.4,9.39927273 C104.04,9.49527273 103.704,9.78327273 103.392,10.2632727 C103.128,10.7432727 102.924,11.3072727 102.78,11.9552727 C102.636,12.6752727 102.564,13.3892727 102.564,14.0972727 C102.564,14.8052727 102.564,15.4472727 102.564,16.0232727 C102.564,16.7192727 102.552,17.2232727 102.528,17.5352727 C102.528,17.9192727 102.468,18.2192727 102.348,18.4352727 C102.228,18.6992727 102.024,18.8312727 101.736,18.8312727 C101.568,18.8312727 101.412,18.7592727 101.268,18.6152727 C101.172,18.4952727 101.088,18.3392727 101.016,18.1472727 L101.016,17.3912727 Z" id="路径"></path>
                </g>
            </g>
        </g>
    </g>
</svg>